{
	"patcher" : 	{
		"fileversion" : 1,
		"appversion" : 		{
			"major" : 8,
			"minor" : 1,
			"revision" : 11,
			"architecture" : "x64",
			"modernui" : 1
		}
,
		"classnamespace" : "box",
		"rect" : [ 34.0, 77.0, 1447.0, 939.0 ],
		"bglocked" : 0,
		"openinpresentation" : 0,
		"default_fontsize" : 12.0,
		"default_fontface" : 0,
		"default_fontname" : "Arial",
		"gridonopen" : 1,
		"gridsize" : [ 15.0, 15.0 ],
		"gridsnaponopen" : 1,
		"objectsnaponopen" : 1,
		"statusbarvisible" : 2,
		"toolbarvisible" : 1,
		"lefttoolbarpinned" : 0,
		"toptoolbarpinned" : 0,
		"righttoolbarpinned" : 0,
		"bottomtoolbarpinned" : 0,
		"toolbars_unpinned_last_save" : 0,
		"tallnewobj" : 0,
		"boxanimatetime" : 200,
		"enablehscroll" : 1,
		"enablevscroll" : 1,
		"devicewidth" : 0.0,
		"description" : "",
		"digest" : "",
		"tags" : "",
		"style" : "",
		"subpatcher_template" : "",
		"assistshowspatchername" : 0,
		"boxes" : [ 			{
				"box" : 				{
					"bgcolor" : [ 0.847058823529412, 0.847058823529412, 0.847058823529412, 1.0 ],
					"bubble" : 1,
					"bubbleusescolors" : 1,
					"id" : "obj-514",
					"maxclass" : "comment",
					"numinlets" : 1,
					"numoutlets" : 0,
					"patching_rect" : [ 780.0, 840.0, 150.0, 24.0 ],
					"presentation_linecount" : 2,
					"text" : "Sequencer as bpatcher"
				}

			}
, 			{
				"box" : 				{
					"bgcolor" : [ 0.847058823529412, 0.847058823529412, 0.847058823529412, 1.0 ],
					"bubble" : 1,
					"bubbleusescolors" : 1,
					"id" : "obj-513",
					"linecount" : 2,
					"maxclass" : "comment",
					"numinlets" : 1,
					"numoutlets" : 0,
					"patching_rect" : [ 780.0, 675.0, 150.0, 38.0 ],
					"presentation_linecount" : 2,
					"text" : "Increments over specified # of bars"
				}

			}
, 			{
				"box" : 				{
					"bgcolor" : [ 0.847058823529412, 0.847058823529412, 0.847058823529412, 1.0 ],
					"bubble" : 1,
					"bubbleusescolors" : 1,
					"id" : "obj-512",
					"linecount" : 2,
					"maxclass" : "comment",
					"numinlets" : 1,
					"numoutlets" : 0,
					"patching_rect" : [ 780.0, 510.0, 150.0, 38.0 ],
					"presentation_linecount" : 2,
					"text" : "Logic Switch based on Sequencer Length"
				}

			}
, 			{
				"box" : 				{
					"id" : "obj-492",
					"maxclass" : "newobj",
					"numinlets" : 18,
					"numoutlets" : 1,
					"outlettype" : [ "int" ],
					"patcher" : 					{
						"fileversion" : 1,
						"appversion" : 						{
							"major" : 8,
							"minor" : 1,
							"revision" : 11,
							"architecture" : "x64",
							"modernui" : 1
						}
,
						"classnamespace" : "box",
						"rect" : [ 988.0, 85.0, 890.0, 930.0 ],
						"bglocked" : 0,
						"openinpresentation" : 0,
						"default_fontsize" : 12.0,
						"default_fontface" : 0,
						"default_fontname" : "Arial",
						"gridonopen" : 1,
						"gridsize" : [ 15.0, 15.0 ],
						"gridsnaponopen" : 1,
						"objectsnaponopen" : 1,
						"statusbarvisible" : 2,
						"toolbarvisible" : 1,
						"lefttoolbarpinned" : 0,
						"toptoolbarpinned" : 0,
						"righttoolbarpinned" : 0,
						"bottomtoolbarpinned" : 0,
						"toolbars_unpinned_last_save" : 0,
						"tallnewobj" : 0,
						"boxanimatetime" : 200,
						"enablehscroll" : 1,
						"enablevscroll" : 1,
						"devicewidth" : 0.0,
						"description" : "",
						"digest" : "",
						"tags" : "",
						"style" : "",
						"subpatcher_template" : "",
						"assistshowspatchername" : 0,
						"visible" : 1,
						"boxes" : [ 							{
								"box" : 								{
									"comment" : "",
									"id" : "obj-1",
									"index" : 18,
									"maxclass" : "inlet",
									"numinlets" : 0,
									"numoutlets" : 1,
									"outlettype" : [ "int" ],
									"patching_rect" : [ 1575.0, 40.0, 30.0, 30.0 ]
								}

							}
, 							{
								"box" : 								{
									"id" : "obj-434",
									"maxclass" : "newobj",
									"numinlets" : 5,
									"numoutlets" : 4,
									"outlettype" : [ "int", "", "", "int" ],
									"patching_rect" : [ 1445.0, 310.0, 75.0, 22.0 ],
									"text" : "counter 0 15"
								}

							}
, 							{
								"box" : 								{
									"id" : "obj-432",
									"maxclass" : "newobj",
									"numinlets" : 5,
									"numoutlets" : 4,
									"outlettype" : [ "int", "", "", "int" ],
									"patching_rect" : [ 1355.0, 310.0, 75.0, 22.0 ],
									"text" : "counter 0 14"
								}

							}
, 							{
								"box" : 								{
									"id" : "obj-431",
									"maxclass" : "newobj",
									"numinlets" : 5,
									"numoutlets" : 4,
									"outlettype" : [ "int", "", "", "int" ],
									"patching_rect" : [ 1265.0, 310.0, 75.0, 22.0 ],
									"text" : "counter 0 13"
								}

							}
, 							{
								"box" : 								{
									"id" : "obj-430",
									"maxclass" : "newobj",
									"numinlets" : 5,
									"numoutlets" : 4,
									"outlettype" : [ "int", "", "", "int" ],
									"patching_rect" : [ 1175.0, 310.0, 75.0, 22.0 ],
									"text" : "counter 0 12"
								}

							}
, 							{
								"box" : 								{
									"id" : "obj-429",
									"maxclass" : "newobj",
									"numinlets" : 5,
									"numoutlets" : 4,
									"outlettype" : [ "int", "", "", "int" ],
									"patching_rect" : [ 1085.0, 310.0, 74.0, 22.0 ],
									"text" : "counter 0 11"
								}

							}
, 							{
								"box" : 								{
									"id" : "obj-428",
									"maxclass" : "newobj",
									"numinlets" : 5,
									"numoutlets" : 4,
									"outlettype" : [ "int", "", "", "int" ],
									"patching_rect" : [ 995.0, 310.0, 75.0, 22.0 ],
									"text" : "counter 0 10"
								}

							}
, 							{
								"box" : 								{
									"id" : "obj-427",
									"maxclass" : "newobj",
									"numinlets" : 5,
									"numoutlets" : 4,
									"outlettype" : [ "int", "", "", "int" ],
									"patching_rect" : [ 905.0, 310.0, 69.0, 22.0 ],
									"text" : "counter 0 9"
								}

							}
, 							{
								"box" : 								{
									"id" : "obj-426",
									"maxclass" : "newobj",
									"numinlets" : 5,
									"numoutlets" : 4,
									"outlettype" : [ "int", "", "", "int" ],
									"patching_rect" : [ 815.0, 310.0, 69.0, 22.0 ],
									"text" : "counter 0 8"
								}

							}
, 							{
								"box" : 								{
									"id" : "obj-425",
									"maxclass" : "newobj",
									"numinlets" : 5,
									"numoutlets" : 4,
									"outlettype" : [ "int", "", "", "int" ],
									"patching_rect" : [ 740.0, 310.0, 69.0, 22.0 ],
									"text" : "counter 0 7"
								}

							}
, 							{
								"box" : 								{
									"id" : "obj-424",
									"maxclass" : "newobj",
									"numinlets" : 5,
									"numoutlets" : 4,
									"outlettype" : [ "int", "", "", "int" ],
									"patching_rect" : [ 650.0, 310.0, 69.0, 22.0 ],
									"text" : "counter 0 6"
								}

							}
, 							{
								"box" : 								{
									"id" : "obj-423",
									"maxclass" : "newobj",
									"numinlets" : 5,
									"numoutlets" : 4,
									"outlettype" : [ "int", "", "", "int" ],
									"patching_rect" : [ 560.0, 310.0, 69.0, 22.0 ],
									"text" : "counter 0 5"
								}

							}
, 							{
								"box" : 								{
									"id" : "obj-422",
									"maxclass" : "newobj",
									"numinlets" : 5,
									"numoutlets" : 4,
									"outlettype" : [ "int", "", "", "int" ],
									"patching_rect" : [ 470.0, 310.0, 69.0, 22.0 ],
									"text" : "counter 0 4"
								}

							}
, 							{
								"box" : 								{
									"bubble" : 1,
									"id" : "obj-24",
									"linecount" : 3,
									"maxclass" : "comment",
									"numinlets" : 1,
									"numoutlets" : 0,
									"patching_rect" : [ 1640.0, 430.0, 225.0, 52.0 ],
									"text" : "Tells all counters what the bar counter is when No. of Bars Selector is changed mid-sequence"
								}

							}
, 							{
								"box" : 								{
									"bubble" : 1,
									"id" : "obj-17",
									"maxclass" : "comment",
									"numinlets" : 1,
									"numoutlets" : 0,
									"patching_rect" : [ 138.000000000000114, 100.0, 195.0, 24.0 ],
									"text" : "Resets ALL counters on re-start"
								}

							}
, 							{
								"box" : 								{
									"bubble" : 1,
									"bubbleside" : 3,
									"id" : "obj-13",
									"linecount" : 4,
									"maxclass" : "comment",
									"numinlets" : 1,
									"numoutlets" : 0,
									"patching_rect" : [ 50.0, 295.0, 72.0, 66.0 ],
									"text" : "Counter based on bar selector"
								}

							}
, 							{
								"box" : 								{
									"id" : "obj-26",
									"maxclass" : "newobj",
									"numinlets" : 1,
									"numoutlets" : 1,
									"outlettype" : [ "bang" ],
									"patching_rect" : [ 1460.0, 310.0, 22.0, 22.0 ],
									"text" : "t b"
								}

							}
, 							{
								"box" : 								{
									"id" : "obj-23",
									"maxclass" : "message",
									"numinlets" : 2,
									"numoutlets" : 1,
									"outlettype" : [ "" ],
									"patching_rect" : [ 1580.0, 445.0, 50.0, 22.0 ],
									"text" : "0"
								}

							}
, 							{
								"box" : 								{
									"id" : "obj-411",
									"maxclass" : "message",
									"numinlets" : 2,
									"numoutlets" : 1,
									"outlettype" : [ "" ],
									"patching_rect" : [ 155.000000000000114, 310.0, 29.5, 22.0 ],
									"text" : "0"
								}

							}
, 							{
								"box" : 								{
									"id" : "obj-3",
									"maxclass" : "newobj",
									"numinlets" : 5,
									"numoutlets" : 4,
									"outlettype" : [ "int", "", "", "int" ],
									"patching_rect" : [ 379.99993900000004, 310.0, 71.0, 22.0 ],
									"text" : "counter 0 3"
								}

							}
, 							{
								"box" : 								{
									"id" : "obj-335",
									"maxclass" : "newobj",
									"numinlets" : 5,
									"numoutlets" : 4,
									"outlettype" : [ "int", "", "", "int" ],
									"patching_rect" : [ 290.0, 310.0, 71.0, 22.0 ],
									"text" : "counter 0 2"
								}

							}
, 							{
								"box" : 								{
									"id" : "obj-336",
									"maxclass" : "newobj",
									"numinlets" : 5,
									"numoutlets" : 4,
									"outlettype" : [ "int", "", "", "int" ],
									"patching_rect" : [ 200.000000000000114, 310.0, 71.0, 22.0 ],
									"text" : "counter 0 1"
								}

							}
, 							{
								"box" : 								{
									"id" : "obj-386",
									"maxclass" : "message",
									"numinlets" : 2,
									"numoutlets" : 1,
									"outlettype" : [ "" ],
									"patching_rect" : [ 92.5, 100.0, 29.5, 22.0 ],
									"text" : "0"
								}

							}
, 							{
								"box" : 								{
									"comment" : "",
									"id" : "obj-474",
									"index" : 2,
									"maxclass" : "inlet",
									"numinlets" : 0,
									"numoutlets" : 1,
									"outlettype" : [ "" ],
									"patching_rect" : [ 155.0, 40.0, 30.0, 30.0 ]
								}

							}
, 							{
								"box" : 								{
									"comment" : "",
									"id" : "obj-475",
									"index" : 3,
									"maxclass" : "inlet",
									"numinlets" : 0,
									"numoutlets" : 1,
									"outlettype" : [ "" ],
									"patching_rect" : [ 200.0, 40.0, 30.0, 30.0 ]
								}

							}
, 							{
								"box" : 								{
									"comment" : "",
									"id" : "obj-476",
									"index" : 4,
									"maxclass" : "inlet",
									"numinlets" : 0,
									"numoutlets" : 1,
									"outlettype" : [ "" ],
									"patching_rect" : [ 290.0, 40.0, 30.0, 30.0 ]
								}

							}
, 							{
								"box" : 								{
									"comment" : "",
									"id" : "obj-477",
									"index" : 5,
									"maxclass" : "inlet",
									"numinlets" : 0,
									"numoutlets" : 1,
									"outlettype" : [ "" ],
									"patching_rect" : [ 379.99993900000004, 40.0, 30.0, 30.0 ]
								}

							}
, 							{
								"box" : 								{
									"comment" : "",
									"id" : "obj-478",
									"index" : 6,
									"maxclass" : "inlet",
									"numinlets" : 0,
									"numoutlets" : 1,
									"outlettype" : [ "" ],
									"patching_rect" : [ 470.0, 40.0, 30.0, 30.0 ]
								}

							}
, 							{
								"box" : 								{
									"comment" : "",
									"id" : "obj-479",
									"index" : 7,
									"maxclass" : "inlet",
									"numinlets" : 0,
									"numoutlets" : 1,
									"outlettype" : [ "" ],
									"patching_rect" : [ 560.0, 40.0, 30.0, 30.0 ]
								}

							}
, 							{
								"box" : 								{
									"comment" : "",
									"id" : "obj-480",
									"index" : 8,
									"maxclass" : "inlet",
									"numinlets" : 0,
									"numoutlets" : 1,
									"outlettype" : [ "" ],
									"patching_rect" : [ 650.0, 40.0, 30.0, 30.0 ]
								}

							}
, 							{
								"box" : 								{
									"comment" : "",
									"id" : "obj-481",
									"index" : 1,
									"maxclass" : "inlet",
									"numinlets" : 0,
									"numoutlets" : 1,
									"outlettype" : [ "int" ],
									"patching_rect" : [ 92.5, 40.0, 30.0, 30.0 ]
								}

							}
, 							{
								"box" : 								{
									"comment" : "",
									"id" : "obj-482",
									"index" : 9,
									"maxclass" : "inlet",
									"numinlets" : 0,
									"numoutlets" : 1,
									"outlettype" : [ "" ],
									"patching_rect" : [ 775.0, 40.0, 30.0, 30.0 ]
								}

							}
, 							{
								"box" : 								{
									"comment" : "",
									"id" : "obj-483",
									"index" : 10,
									"maxclass" : "inlet",
									"numinlets" : 0,
									"numoutlets" : 1,
									"outlettype" : [ "" ],
									"patching_rect" : [ 815.0, 40.0, 30.0, 30.0 ]
								}

							}
, 							{
								"box" : 								{
									"comment" : "",
									"id" : "obj-484",
									"index" : 11,
									"maxclass" : "inlet",
									"numinlets" : 0,
									"numoutlets" : 1,
									"outlettype" : [ "" ],
									"patching_rect" : [ 905.0, 40.0, 30.0, 30.0 ]
								}

							}
, 							{
								"box" : 								{
									"comment" : "",
									"id" : "obj-485",
									"index" : 12,
									"maxclass" : "inlet",
									"numinlets" : 0,
									"numoutlets" : 1,
									"outlettype" : [ "" ],
									"patching_rect" : [ 995.0, 40.0, 30.0, 30.0 ]
								}

							}
, 							{
								"box" : 								{
									"comment" : "",
									"id" : "obj-486",
									"index" : 13,
									"maxclass" : "inlet",
									"numinlets" : 0,
									"numoutlets" : 1,
									"outlettype" : [ "" ],
									"patching_rect" : [ 1085.0, 40.0, 30.0, 30.0 ]
								}

							}
, 							{
								"box" : 								{
									"comment" : "",
									"id" : "obj-487",
									"index" : 14,
									"maxclass" : "inlet",
									"numinlets" : 0,
									"numoutlets" : 1,
									"outlettype" : [ "" ],
									"patching_rect" : [ 1175.0, 40.0, 30.0, 30.0 ]
								}

							}
, 							{
								"box" : 								{
									"comment" : "",
									"id" : "obj-488",
									"index" : 15,
									"maxclass" : "inlet",
									"numinlets" : 0,
									"numoutlets" : 1,
									"outlettype" : [ "" ],
									"patching_rect" : [ 1265.0, 40.0, 30.0, 30.0 ]
								}

							}
, 							{
								"box" : 								{
									"comment" : "",
									"id" : "obj-489",
									"index" : 16,
									"maxclass" : "inlet",
									"numinlets" : 0,
									"numoutlets" : 1,
									"outlettype" : [ "" ],
									"patching_rect" : [ 1355.0, 40.0, 30.0, 30.0 ]
								}

							}
, 							{
								"box" : 								{
									"comment" : "",
									"id" : "obj-490",
									"index" : 17,
									"maxclass" : "inlet",
									"numinlets" : 0,
									"numoutlets" : 1,
									"outlettype" : [ "" ],
									"patching_rect" : [ 1445.0, 40.0, 30.0, 30.0 ]
								}

							}
, 							{
								"box" : 								{
									"comment" : "",
									"id" : "obj-491",
									"index" : 1,
									"maxclass" : "outlet",
									"numinlets" : 1,
									"numoutlets" : 0,
									"patching_rect" : [ 774.3125, 542.0, 30.0, 30.0 ]
								}

							}
 ],
						"lines" : [ 							{
								"patchline" : 								{
									"destination" : [ "obj-23", 0 ],
									"source" : [ "obj-1", 0 ]
								}

							}
, 							{
								"patchline" : 								{
									"destination" : [ "obj-3", 3 ],
									"order" : 12,
									"source" : [ "obj-23", 0 ]
								}

							}
, 							{
								"patchline" : 								{
									"destination" : [ "obj-335", 3 ],
									"order" : 13,
									"source" : [ "obj-23", 0 ]
								}

							}
, 							{
								"patchline" : 								{
									"destination" : [ "obj-336", 3 ],
									"order" : 14,
									"source" : [ "obj-23", 0 ]
								}

							}
, 							{
								"patchline" : 								{
									"destination" : [ "obj-422", 3 ],
									"order" : 11,
									"source" : [ "obj-23", 0 ]
								}

							}
, 							{
								"patchline" : 								{
									"destination" : [ "obj-423", 3 ],
									"order" : 10,
									"source" : [ "obj-23", 0 ]
								}

							}
, 							{
								"patchline" : 								{
									"destination" : [ "obj-424", 3 ],
									"order" : 9,
									"source" : [ "obj-23", 0 ]
								}

							}
, 							{
								"patchline" : 								{
									"destination" : [ "obj-425", 3 ],
									"order" : 8,
									"source" : [ "obj-23", 0 ]
								}

							}
, 							{
								"patchline" : 								{
									"destination" : [ "obj-426", 3 ],
									"order" : 7,
									"source" : [ "obj-23", 0 ]
								}

							}
, 							{
								"patchline" : 								{
									"destination" : [ "obj-427", 3 ],
									"order" : 6,
									"source" : [ "obj-23", 0 ]
								}

							}
, 							{
								"patchline" : 								{
									"destination" : [ "obj-428", 3 ],
									"order" : 5,
									"source" : [ "obj-23", 0 ]
								}

							}
, 							{
								"patchline" : 								{
									"destination" : [ "obj-429", 3 ],
									"order" : 4,
									"source" : [ "obj-23", 0 ]
								}

							}
, 							{
								"patchline" : 								{
									"destination" : [ "obj-430", 3 ],
									"order" : 3,
									"source" : [ "obj-23", 0 ]
								}

							}
, 							{
								"patchline" : 								{
									"destination" : [ "obj-431", 3 ],
									"order" : 2,
									"source" : [ "obj-23", 0 ]
								}

							}
, 							{
								"patchline" : 								{
									"destination" : [ "obj-432", 3 ],
									"order" : 1,
									"source" : [ "obj-23", 0 ]
								}

							}
, 							{
								"patchline" : 								{
									"destination" : [ "obj-434", 3 ],
									"order" : 0,
									"source" : [ "obj-23", 0 ]
								}

							}
, 							{
								"patchline" : 								{
									"destination" : [ "obj-23", 1 ],
									"order" : 0,
									"source" : [ "obj-3", 0 ]
								}

							}
, 							{
								"patchline" : 								{
									"destination" : [ "obj-491", 0 ],
									"order" : 1,
									"source" : [ "obj-3", 0 ]
								}

							}
, 							{
								"patchline" : 								{
									"destination" : [ "obj-23", 1 ],
									"order" : 0,
									"source" : [ "obj-335", 0 ]
								}

							}
, 							{
								"patchline" : 								{
									"destination" : [ "obj-491", 0 ],
									"order" : 1,
									"source" : [ "obj-335", 0 ]
								}

							}
, 							{
								"patchline" : 								{
									"destination" : [ "obj-23", 1 ],
									"order" : 0,
									"source" : [ "obj-336", 0 ]
								}

							}
, 							{
								"patchline" : 								{
									"destination" : [ "obj-491", 0 ],
									"order" : 1,
									"source" : [ "obj-336", 0 ]
								}

							}
, 							{
								"patchline" : 								{
									"destination" : [ "obj-3", 2 ],
									"order" : 12,
									"source" : [ "obj-386", 0 ]
								}

							}
, 							{
								"patchline" : 								{
									"destination" : [ "obj-335", 2 ],
									"order" : 13,
									"source" : [ "obj-386", 0 ]
								}

							}
, 							{
								"patchline" : 								{
									"destination" : [ "obj-336", 2 ],
									"order" : 14,
									"source" : [ "obj-386", 0 ]
								}

							}
, 							{
								"patchline" : 								{
									"destination" : [ "obj-422", 2 ],
									"order" : 11,
									"source" : [ "obj-386", 0 ]
								}

							}
, 							{
								"patchline" : 								{
									"destination" : [ "obj-423", 2 ],
									"order" : 10,
									"source" : [ "obj-386", 0 ]
								}

							}
, 							{
								"patchline" : 								{
									"destination" : [ "obj-424", 2 ],
									"order" : 9,
									"source" : [ "obj-386", 0 ]
								}

							}
, 							{
								"patchline" : 								{
									"destination" : [ "obj-425", 2 ],
									"order" : 8,
									"source" : [ "obj-386", 0 ]
								}

							}
, 							{
								"patchline" : 								{
									"destination" : [ "obj-426", 2 ],
									"order" : 7,
									"source" : [ "obj-386", 0 ]
								}

							}
, 							{
								"patchline" : 								{
									"destination" : [ "obj-427", 2 ],
									"order" : 6,
									"source" : [ "obj-386", 0 ]
								}

							}
, 							{
								"patchline" : 								{
									"destination" : [ "obj-428", 2 ],
									"order" : 5,
									"source" : [ "obj-386", 0 ]
								}

							}
, 							{
								"patchline" : 								{
									"destination" : [ "obj-429", 2 ],
									"order" : 4,
									"source" : [ "obj-386", 0 ]
								}

							}
, 							{
								"patchline" : 								{
									"destination" : [ "obj-430", 2 ],
									"order" : 3,
									"source" : [ "obj-386", 0 ]
								}

							}
, 							{
								"patchline" : 								{
									"destination" : [ "obj-431", 2 ],
									"order" : 2,
									"source" : [ "obj-386", 0 ]
								}

							}
, 							{
								"patchline" : 								{
									"destination" : [ "obj-432", 2 ],
									"order" : 1,
									"source" : [ "obj-386", 0 ]
								}

							}
, 							{
								"patchline" : 								{
									"destination" : [ "obj-434", 2 ],
									"order" : 0,
									"source" : [ "obj-386", 0 ]
								}

							}
, 							{
								"patchline" : 								{
									"destination" : [ "obj-23", 1 ],
									"order" : 0,
									"source" : [ "obj-411", 0 ]
								}

							}
, 							{
								"patchline" : 								{
									"destination" : [ "obj-491", 0 ],
									"order" : 1,
									"source" : [ "obj-411", 0 ]
								}

							}
, 							{
								"patchline" : 								{
									"destination" : [ "obj-23", 1 ],
									"order" : 0,
									"source" : [ "obj-422", 0 ]
								}

							}
, 							{
								"patchline" : 								{
									"destination" : [ "obj-491", 0 ],
									"order" : 1,
									"source" : [ "obj-422", 0 ]
								}

							}
, 							{
								"patchline" : 								{
									"destination" : [ "obj-23", 1 ],
									"order" : 0,
									"source" : [ "obj-423", 0 ]
								}

							}
, 							{
								"patchline" : 								{
									"destination" : [ "obj-491", 0 ],
									"order" : 1,
									"source" : [ "obj-423", 0 ]
								}

							}
, 							{
								"patchline" : 								{
									"destination" : [ "obj-23", 1 ],
									"order" : 0,
									"source" : [ "obj-424", 0 ]
								}

							}
, 							{
								"patchline" : 								{
									"destination" : [ "obj-491", 0 ],
									"order" : 1,
									"source" : [ "obj-424", 0 ]
								}

							}
, 							{
								"patchline" : 								{
									"destination" : [ "obj-23", 1 ],
									"order" : 0,
									"source" : [ "obj-425", 0 ]
								}

							}
, 							{
								"patchline" : 								{
									"destination" : [ "obj-491", 0 ],
									"order" : 1,
									"source" : [ "obj-425", 0 ]
								}

							}
, 							{
								"patchline" : 								{
									"destination" : [ "obj-23", 1 ],
									"order" : 0,
									"source" : [ "obj-426", 0 ]
								}

							}
, 							{
								"patchline" : 								{
									"destination" : [ "obj-491", 0 ],
									"order" : 1,
									"source" : [ "obj-426", 0 ]
								}

							}
, 							{
								"patchline" : 								{
									"destination" : [ "obj-23", 1 ],
									"order" : 0,
									"source" : [ "obj-427", 0 ]
								}

							}
, 							{
								"patchline" : 								{
									"destination" : [ "obj-491", 0 ],
									"order" : 1,
									"source" : [ "obj-427", 0 ]
								}

							}
, 							{
								"patchline" : 								{
									"destination" : [ "obj-23", 1 ],
									"order" : 0,
									"source" : [ "obj-428", 0 ]
								}

							}
, 							{
								"patchline" : 								{
									"destination" : [ "obj-491", 0 ],
									"order" : 1,
									"source" : [ "obj-428", 0 ]
								}

							}
, 							{
								"patchline" : 								{
									"destination" : [ "obj-23", 1 ],
									"order" : 0,
									"source" : [ "obj-429", 0 ]
								}

							}
, 							{
								"patchline" : 								{
									"destination" : [ "obj-491", 0 ],
									"order" : 1,
									"source" : [ "obj-429", 0 ]
								}

							}
, 							{
								"patchline" : 								{
									"destination" : [ "obj-23", 1 ],
									"order" : 0,
									"source" : [ "obj-430", 0 ]
								}

							}
, 							{
								"patchline" : 								{
									"destination" : [ "obj-491", 0 ],
									"order" : 1,
									"source" : [ "obj-430", 0 ]
								}

							}
, 							{
								"patchline" : 								{
									"destination" : [ "obj-23", 1 ],
									"order" : 0,
									"source" : [ "obj-431", 0 ]
								}

							}
, 							{
								"patchline" : 								{
									"destination" : [ "obj-491", 0 ],
									"order" : 1,
									"source" : [ "obj-431", 0 ]
								}

							}
, 							{
								"patchline" : 								{
									"destination" : [ "obj-23", 1 ],
									"order" : 0,
									"source" : [ "obj-432", 0 ]
								}

							}
, 							{
								"patchline" : 								{
									"destination" : [ "obj-491", 0 ],
									"order" : 1,
									"source" : [ "obj-432", 0 ]
								}

							}
, 							{
								"patchline" : 								{
									"destination" : [ "obj-23", 1 ],
									"order" : 0,
									"source" : [ "obj-434", 0 ]
								}

							}
, 							{
								"patchline" : 								{
									"destination" : [ "obj-491", 0 ],
									"order" : 1,
									"source" : [ "obj-434", 0 ]
								}

							}
, 							{
								"patchline" : 								{
									"destination" : [ "obj-411", 0 ],
									"source" : [ "obj-474", 0 ]
								}

							}
, 							{
								"patchline" : 								{
									"destination" : [ "obj-336", 0 ],
									"source" : [ "obj-475", 0 ]
								}

							}
, 							{
								"patchline" : 								{
									"destination" : [ "obj-335", 0 ],
									"source" : [ "obj-476", 0 ]
								}

							}
, 							{
								"patchline" : 								{
									"destination" : [ "obj-3", 0 ],
									"source" : [ "obj-477", 0 ]
								}

							}
, 							{
								"patchline" : 								{
									"destination" : [ "obj-422", 0 ],
									"source" : [ "obj-478", 0 ]
								}

							}
, 							{
								"patchline" : 								{
									"destination" : [ "obj-423", 0 ],
									"source" : [ "obj-479", 0 ]
								}

							}
, 							{
								"patchline" : 								{
									"destination" : [ "obj-424", 0 ],
									"source" : [ "obj-480", 0 ]
								}

							}
, 							{
								"patchline" : 								{
									"destination" : [ "obj-386", 0 ],
									"source" : [ "obj-481", 0 ]
								}

							}
, 							{
								"patchline" : 								{
									"destination" : [ "obj-425", 0 ],
									"source" : [ "obj-482", 0 ]
								}

							}
, 							{
								"patchline" : 								{
									"destination" : [ "obj-426", 0 ],
									"source" : [ "obj-483", 0 ]
								}

							}
, 							{
								"patchline" : 								{
									"destination" : [ "obj-427", 0 ],
									"source" : [ "obj-484", 0 ]
								}

							}
, 							{
								"patchline" : 								{
									"destination" : [ "obj-428", 0 ],
									"source" : [ "obj-485", 0 ]
								}

							}
, 							{
								"patchline" : 								{
									"destination" : [ "obj-429", 0 ],
									"source" : [ "obj-486", 0 ]
								}

							}
, 							{
								"patchline" : 								{
									"destination" : [ "obj-430", 0 ],
									"source" : [ "obj-487", 0 ]
								}

							}
, 							{
								"patchline" : 								{
									"destination" : [ "obj-431", 0 ],
									"source" : [ "obj-488", 0 ]
								}

							}
, 							{
								"patchline" : 								{
									"destination" : [ "obj-432", 0 ],
									"source" : [ "obj-489", 0 ]
								}

							}
, 							{
								"patchline" : 								{
									"destination" : [ "obj-434", 0 ],
									"source" : [ "obj-490", 0 ]
								}

							}
 ]
					}
,
					"patching_rect" : [ 390.0, 630.0, 390.178571283817291, 22.0 ],
					"saved_object_attributes" : 					{
						"description" : "",
						"digest" : "",
						"globalpatchername" : "",
						"tags" : ""
					}
,
					"text" : "p barCounter"
				}

			}
, 			{
				"box" : 				{
					"bgmode" : 0,
					"border" : 0,
					"clickthrough" : 0,
					"enablehscroll" : 1,
					"enablevscroll" : 0,
					"id" : "obj-421",
					"lockeddragscroll" : 0,
					"maxclass" : "bpatcher",
					"name" : "variableSequencer.maxpat",
					"numinlets" : 17,
					"numoutlets" : 0,
					"offset" : [ 0.0, 0.0 ],
					"patching_rect" : [ 390.0, 840.0, 390.0, 705.0 ],
					"viewvisibility" : 1
				}

			}
, 			{
				"box" : 				{
					"bgcolor" : [ 0.847058823529412, 0.847058823529412, 0.847058823529412, 1.0 ],
					"bubble" : 1,
					"bubbleusescolors" : 1,
					"id" : "obj-8",
					"maxclass" : "comment",
					"numinlets" : 1,
					"numoutlets" : 0,
					"patching_rect" : [ 405.0, 300.0, 240.0, 24.0 ],
					"presentation_linecount" : 2,
					"text" : "Make sure counter resets before pulse"
				}

			}
, 			{
				"box" : 				{
					"bgcolor" : [ 0.847058823529412, 0.847058823529412, 0.847058823529412, 1.0 ],
					"bubble" : 1,
					"bubbleusescolors" : 1,
					"id" : "obj-340",
					"maxclass" : "comment",
					"numinlets" : 1,
					"numoutlets" : 0,
					"patching_rect" : [ 750.0, 450.0, 180.0, 24.0 ],
					"text" : "Sequencer Length (in Bars)"
				}

			}
, 			{
				"box" : 				{
					"id" : "obj-333",
					"int" : 1,
					"maxclass" : "gswitch2",
					"numinlets" : 2,
					"numoutlets" : 16,
					"outlettype" : [ "", "", "", "", "", "", "", "", "", "", "", "", "", "", "", "" ],
					"outputs" : 16,
					"parameter_enable" : 0,
					"patching_rect" : [ 390.0, 510.0, 375.0, 90.0 ]
				}

			}
, 			{
				"box" : 				{
					"allowdrag" : 0,
					"bgfillcolor_angle" : 270.0,
					"bgfillcolor_autogradient" : 0,
					"bgfillcolor_color" : [ 0.290196, 0.309804, 0.301961, 1.0 ],
					"bgfillcolor_color1" : [ 0.311041, 0.314599, 0.318357, 1.0 ],
					"bgfillcolor_color2" : [ 0.290196, 0.309804, 0.301961, 1.0 ],
					"bgfillcolor_proportion" : 0.39,
					"bgfillcolor_type" : "gradient",
					"id" : "obj-118",
					"items" : [ 1, "Bar", ",", 2, "Bars", ",", 3, "Bars", ",", 4, "Bars", ",", 5, "Bars", ",", 6, "Bars", ",", 7, "Bars", ",", 8, "Bars", ",", 9, "Bars", ",", 10, "Bars", ",", 11, "Bars", ",", 12, "Bars", ",", 13, "Bars", ",", 14, "Bars", ",", 15, "Bars", ",", 16, "Bars" ],
					"maxclass" : "umenu",
					"numinlets" : 1,
					"numoutlets" : 3,
					"outlettype" : [ "int", "", "" ],
					"parameter_enable" : 0,
					"patching_rect" : [ 645.0, 450.0, 100.0, 22.0 ],
					"presentation" : 1,
					"presentation_rect" : [ 60.0, 465.0, 150.0, 22.0 ]
				}

			}
, 			{
				"box" : 				{
					"id" : "obj-5",
					"maxclass" : "newobj",
					"numinlets" : 1,
					"numoutlets" : 1,
					"outlettype" : [ "" ],
					"patching_rect" : [ 353.25, 301.041666626930237, 36.0, 22.0 ],
					"text" : "defer"
				}

			}
, 			{
				"box" : 				{
					"id" : "obj-2",
					"maxclass" : "message",
					"numinlets" : 2,
					"numoutlets" : 1,
					"outlettype" : [ "" ],
					"patching_rect" : [ 353.25, 60.0, 29.5, 22.0 ],
					"text" : "131"
				}

			}
, 			{
				"box" : 				{
					"id" : "obj-7",
					"maxclass" : "newobj",
					"numinlets" : 1,
					"numoutlets" : 1,
					"outlettype" : [ "bang" ],
					"patching_rect" : [ 495.0, 15.0, 60.0, 22.0 ],
					"text" : "loadbang"
				}

			}
, 			{
				"box" : 				{
					"fontsize" : 15.280716,
					"id" : "obj-16",
					"maxclass" : "number",
					"maximum" : 140,
					"minimum" : 120,
					"numinlets" : 1,
					"numoutlets" : 2,
					"outlettype" : [ "", "bang" ],
					"outputonclick" : 1,
					"parameter_enable" : 0,
					"patching_rect" : [ 330.0, 105.0, 76.0, 26.0 ],
					"presentation" : 1,
					"presentation_rect" : [ 210.0, 60.0, 59.0, 26.0 ]
				}

			}
, 			{
				"box" : 				{
					"id" : "obj-2066",
					"maxclass" : "number",
					"numinlets" : 1,
					"numoutlets" : 2,
					"outlettype" : [ "", "bang" ],
					"parameter_enable" : 0,
					"patching_rect" : [ 467.249995946884155, 255.0, 50.0, 22.0 ]
				}

			}
, 			{
				"box" : 				{
					"id" : "obj-358",
					"maxclass" : "newobj",
					"numinlets" : 2,
					"numoutlets" : 2,
					"outlettype" : [ "bang", "" ],
					"patching_rect" : [ 285.000002861022949, 301.041666626930237, 52.0, 22.0 ],
					"text" : "select 1"
				}

			}
, 			{
				"box" : 				{
					"id" : "obj-34",
					"maxclass" : "message",
					"numinlets" : 2,
					"numoutlets" : 1,
					"outlettype" : [ "" ],
					"patching_rect" : [ 285.0, 210.0, 29.5, 22.0 ],
					"text" : "1"
				}

			}
, 			{
				"box" : 				{
					"id" : "obj-11",
					"items" : [ 1, ",", 2, ",", 4, ",", 8, ",", 16, ",", 32, ",", 64, ",", 128 ],
					"maxclass" : "umenu",
					"numinlets" : 1,
					"numoutlets" : 3,
					"outlettype" : [ "int", "", "" ],
					"parameter_enable" : 0,
					"patching_rect" : [ 420.0, 105.0, 45.0, 22.0 ]
				}

			}
, 			{
				"box" : 				{
					"id" : "obj-277",
					"maxclass" : "newobj",
					"numinlets" : 2,
					"numoutlets" : 2,
					"outlettype" : [ "bang", "" ],
					"patching_rect" : [ 285.0, 60.0, 59.0, 22.0 ],
					"text" : "select 32"
				}

			}
, 			{
				"box" : 				{
					"id" : "obj-275",
					"maxclass" : "newobj",
					"numinlets" : 0,
					"numoutlets" : 4,
					"outlettype" : [ "int", "int", "int", "int" ],
					"patching_rect" : [ 285.0, 15.0, 50.5, 22.0 ],
					"text" : "key"
				}

			}
, 			{
				"box" : 				{
					"id" : "obj-80",
					"maxclass" : "newobj",
					"numinlets" : 5,
					"numoutlets" : 4,
					"outlettype" : [ "int", "", "", "int" ],
					"patching_rect" : [ 285.0, 255.0, 169.79166305065155, 22.0 ],
					"text" : "counter 1 16"
				}

			}
, 			{
				"box" : 				{
					"id" : "obj-75",
					"maxclass" : "toggle",
					"numinlets" : 1,
					"numoutlets" : 1,
					"outlettype" : [ "int" ],
					"parameter_enable" : 0,
					"patching_rect" : [ 285.0, 105.0, 24.0, 24.0 ]
				}

			}
, 			{
				"box" : 				{
					"id" : "obj-73",
					"maxclass" : "newobj",
					"numinlets" : 4,
					"numoutlets" : 1,
					"outlettype" : [ "int" ],
					"patching_rect" : [ 285.0, 165.0, 154.0, 22.0 ],
					"text" : "tempo 131"
				}

			}
, 			{
				"box" : 				{
					"id" : "obj-337",
					"maxclass" : "gswitch2",
					"numinlets" : 2,
					"numoutlets" : 16,
					"outlettype" : [ "", "", "", "", "", "", "", "", "", "", "", "", "", "", "", "" ],
					"outputs" : 16,
					"parameter_enable" : 0,
					"patching_rect" : [ 390.0, 675.0, 375.0, 90.0 ],
					"varname" : "barswitcher"
				}

			}
, 			{
				"box" : 				{
					"id" : "obj-18",
					"maxclass" : "message",
					"numinlets" : 2,
					"numoutlets" : 1,
					"outlettype" : [ "" ],
					"patching_rect" : [ 495.0, 60.0, 119.0, 22.0 ],
					"text" : "read kickDefault.wav"
				}

			}
, 			{
				"box" : 				{
					"id" : "obj-9",
					"maxclass" : "newobj",
					"numinlets" : 1,
					"numoutlets" : 2,
					"outlettype" : [ "float", "bang" ],
					"patching_rect" : [ 495.0, 105.0, 72.0, 22.0 ],
					"text" : "buffer~ kick"
				}

			}
 ],
		"lines" : [ 			{
				"patchline" : 				{
					"destination" : [ "obj-73", 3 ],
					"source" : [ "obj-11", 1 ]
				}

			}
, 			{
				"patchline" : 				{
					"destination" : [ "obj-333", 0 ],
					"midpoints" : [ 654.5, 495.0, 399.5, 495.0 ],
					"order" : 1,
					"source" : [ "obj-118", 0 ]
				}

			}
, 			{
				"patchline" : 				{
					"destination" : [ "obj-492", 17 ],
					"midpoints" : [ 654.5, 495.0, 770.750000059604645, 495.0, 770.750000059604645, 645.0, 770.678571283817291, 645.0 ],
					"order" : 0,
					"source" : [ "obj-118", 0 ]
				}

			}
, 			{
				"patchline" : 				{
					"destination" : [ "obj-73", 1 ],
					"source" : [ "obj-16", 0 ]
				}

			}
, 			{
				"patchline" : 				{
					"destination" : [ "obj-9", 0 ],
					"source" : [ "obj-18", 0 ]
				}

			}
, 			{
				"patchline" : 				{
					"destination" : [ "obj-16", 0 ],
					"source" : [ "obj-2", 0 ]
				}

			}
, 			{
				"patchline" : 				{
					"destination" : [ "obj-277", 0 ],
					"source" : [ "obj-275", 0 ]
				}

			}
, 			{
				"patchline" : 				{
					"destination" : [ "obj-34", 0 ],
					"midpoints" : [ 294.5, 84.0, 270.0, 84.0, 270.0, 204.0, 294.5, 204.0 ],
					"order" : 0,
					"source" : [ "obj-277", 0 ]
				}

			}
, 			{
				"patchline" : 				{
					"destination" : [ "obj-75", 0 ],
					"midpoints" : [ 294.5, 84.0, 294.5, 84.0 ],
					"order" : 1,
					"source" : [ "obj-277", 0 ]
				}

			}
, 			{
				"patchline" : 				{
					"destination" : [ "obj-492", 16 ],
					"source" : [ "obj-333", 15 ]
				}

			}
, 			{
				"patchline" : 				{
					"destination" : [ "obj-492", 15 ],
					"source" : [ "obj-333", 14 ]
				}

			}
, 			{
				"patchline" : 				{
					"destination" : [ "obj-492", 14 ],
					"source" : [ "obj-333", 13 ]
				}

			}
, 			{
				"patchline" : 				{
					"destination" : [ "obj-492", 13 ],
					"source" : [ "obj-333", 12 ]
				}

			}
, 			{
				"patchline" : 				{
					"destination" : [ "obj-492", 12 ],
					"source" : [ "obj-333", 11 ]
				}

			}
, 			{
				"patchline" : 				{
					"destination" : [ "obj-492", 11 ],
					"source" : [ "obj-333", 10 ]
				}

			}
, 			{
				"patchline" : 				{
					"destination" : [ "obj-492", 10 ],
					"source" : [ "obj-333", 9 ]
				}

			}
, 			{
				"patchline" : 				{
					"destination" : [ "obj-492", 9 ],
					"source" : [ "obj-333", 8 ]
				}

			}
, 			{
				"patchline" : 				{
					"destination" : [ "obj-492", 8 ],
					"source" : [ "obj-333", 7 ]
				}

			}
, 			{
				"patchline" : 				{
					"destination" : [ "obj-492", 7 ],
					"source" : [ "obj-333", 6 ]
				}

			}
, 			{
				"patchline" : 				{
					"destination" : [ "obj-492", 6 ],
					"source" : [ "obj-333", 5 ]
				}

			}
, 			{
				"patchline" : 				{
					"destination" : [ "obj-492", 5 ],
					"source" : [ "obj-333", 4 ]
				}

			}
, 			{
				"patchline" : 				{
					"destination" : [ "obj-492", 4 ],
					"source" : [ "obj-333", 3 ]
				}

			}
, 			{
				"patchline" : 				{
					"destination" : [ "obj-492", 3 ],
					"source" : [ "obj-333", 2 ]
				}

			}
, 			{
				"patchline" : 				{
					"destination" : [ "obj-492", 2 ],
					"source" : [ "obj-333", 1 ]
				}

			}
, 			{
				"patchline" : 				{
					"destination" : [ "obj-492", 1 ],
					"source" : [ "obj-333", 0 ]
				}

			}
, 			{
				"patchline" : 				{
					"destination" : [ "obj-421", 15 ],
					"source" : [ "obj-337", 15 ]
				}

			}
, 			{
				"patchline" : 				{
					"destination" : [ "obj-421", 11 ],
					"source" : [ "obj-337", 14 ]
				}

			}
, 			{
				"patchline" : 				{
					"destination" : [ "obj-421", 7 ],
					"source" : [ "obj-337", 13 ]
				}

			}
, 			{
				"patchline" : 				{
					"destination" : [ "obj-421", 3 ],
					"source" : [ "obj-337", 12 ]
				}

			}
, 			{
				"patchline" : 				{
					"destination" : [ "obj-421", 14 ],
					"source" : [ "obj-337", 11 ]
				}

			}
, 			{
				"patchline" : 				{
					"destination" : [ "obj-421", 10 ],
					"source" : [ "obj-337", 10 ]
				}

			}
, 			{
				"patchline" : 				{
					"destination" : [ "obj-421", 6 ],
					"source" : [ "obj-337", 9 ]
				}

			}
, 			{
				"patchline" : 				{
					"destination" : [ "obj-421", 2 ],
					"source" : [ "obj-337", 8 ]
				}

			}
, 			{
				"patchline" : 				{
					"destination" : [ "obj-421", 13 ],
					"source" : [ "obj-337", 7 ]
				}

			}
, 			{
				"patchline" : 				{
					"destination" : [ "obj-421", 9 ],
					"source" : [ "obj-337", 6 ]
				}

			}
, 			{
				"patchline" : 				{
					"destination" : [ "obj-421", 5 ],
					"source" : [ "obj-337", 5 ]
				}

			}
, 			{
				"patchline" : 				{
					"destination" : [ "obj-421", 1 ],
					"source" : [ "obj-337", 4 ]
				}

			}
, 			{
				"patchline" : 				{
					"destination" : [ "obj-421", 12 ],
					"source" : [ "obj-337", 3 ]
				}

			}
, 			{
				"patchline" : 				{
					"destination" : [ "obj-421", 8 ],
					"source" : [ "obj-337", 2 ]
				}

			}
, 			{
				"patchline" : 				{
					"destination" : [ "obj-421", 4 ],
					"source" : [ "obj-337", 1 ]
				}

			}
, 			{
				"patchline" : 				{
					"destination" : [ "obj-421", 0 ],
					"source" : [ "obj-337", 0 ]
				}

			}
, 			{
				"patchline" : 				{
					"destination" : [ "obj-80", 2 ],
					"source" : [ "obj-34", 0 ]
				}

			}
, 			{
				"patchline" : 				{
					"destination" : [ "obj-333", 1 ],
					"midpoints" : [ 294.500002861022949, 488.750000059604645, 755.5, 488.750000059604645 ],
					"source" : [ "obj-358", 0 ]
				}

			}
, 			{
				"patchline" : 				{
					"destination" : [ "obj-337", 0 ],
					"source" : [ "obj-492", 0 ]
				}

			}
, 			{
				"patchline" : 				{
					"destination" : [ "obj-337", 1 ],
					"midpoints" : [ 362.75, 663.157899141311646, 755.5, 663.157899141311646 ],
					"source" : [ "obj-5", 0 ]
				}

			}
, 			{
				"patchline" : 				{
					"destination" : [ "obj-118", 0 ],
					"midpoints" : [ 504.5, 52.68420946598053, 655.947368502616882, 52.68420946598053, 655.947368502616882, 420.0, 654.5, 420.0 ],
					"order" : 0,
					"source" : [ "obj-7", 0 ]
				}

			}
, 			{
				"patchline" : 				{
					"destination" : [ "obj-18", 0 ],
					"order" : 1,
					"source" : [ "obj-7", 0 ]
				}

			}
, 			{
				"patchline" : 				{
					"destination" : [ "obj-2", 0 ],
					"order" : 2,
					"source" : [ "obj-7", 0 ]
				}

			}
, 			{
				"patchline" : 				{
					"destination" : [ "obj-80", 0 ],
					"midpoints" : [ 294.5, 189.0, 270.0, 189.0, 270.0, 249.0, 294.5, 249.0 ],
					"source" : [ "obj-73", 0 ]
				}

			}
, 			{
				"patchline" : 				{
					"destination" : [ "obj-492", 0 ],
					"midpoints" : [ 294.5, 150.0, 270.0, 150.0, 270.0, 616.578949570655823, 399.5, 616.578949570655823 ],
					"order" : 0,
					"source" : [ "obj-75", 0 ]
				}

			}
, 			{
				"patchline" : 				{
					"destination" : [ "obj-73", 0 ],
					"order" : 1,
					"source" : [ "obj-75", 0 ]
				}

			}
, 			{
				"patchline" : 				{
					"destination" : [ "obj-2066", 0 ],
					"midpoints" : [ 294.5, 288.0, 462.0, 288.0, 462.0, 252.0, 476.749995946884155, 252.0 ],
					"order" : 0,
					"source" : [ "obj-80", 0 ]
				}

			}
, 			{
				"patchline" : 				{
					"destination" : [ "obj-358", 0 ],
					"order" : 2,
					"source" : [ "obj-80", 0 ]
				}

			}
, 			{
				"patchline" : 				{
					"destination" : [ "obj-5", 0 ],
					"order" : 1,
					"source" : [ "obj-80", 0 ]
				}

			}
 ],
		"dependency_cache" : [ 			{
				"name" : "variableSequencer.maxpat",
				"bootpath" : "D:/Google Drive/Education/2 - Masters/2021 - Thesis/CAC System/Exported Prototypes/Cycle 2",
				"patcherrelativepath" : ".",
				"type" : "JSON",
				"implicit" : 1
			}
 ],
		"autosave" : 0,
		"bgcolor" : [ 1.0, 1.0, 1.0, 1.0 ]
	}

}
