{
	"patcher" : 	{
		"fileversion" : 1,
		"appversion" : 		{
			"major" : 8,
			"minor" : 1,
			"revision" : 11,
			"architecture" : "x64",
			"modernui" : 1
		}
,
		"classnamespace" : "box",
		"rect" : [ 34.0, 77.0, 1447.0, 939.0 ],
		"bglocked" : 0,
		"openinpresentation" : 0,
		"default_fontsize" : 12.0,
		"default_fontface" : 0,
		"default_fontname" : "Arial",
		"gridonopen" : 1,
		"gridsize" : [ 15.0, 15.0 ],
		"gridsnaponopen" : 1,
		"objectsnaponopen" : 1,
		"statusbarvisible" : 2,
		"toolbarvisible" : 1,
		"lefttoolbarpinned" : 0,
		"toptoolbarpinned" : 0,
		"righttoolbarpinned" : 0,
		"bottomtoolbarpinned" : 0,
		"toolbars_unpinned_last_save" : 0,
		"tallnewobj" : 0,
		"boxanimatetime" : 200,
		"enablehscroll" : 1,
		"enablevscroll" : 1,
		"devicewidth" : 0.0,
		"description" : "",
		"digest" : "",
		"tags" : "",
		"style" : "",
		"subpatcher_template" : "",
		"assistshowspatchername" : 0,
		"boxes" : [ 			{
				"box" : 				{
					"id" : "obj-29",
					"maxclass" : "number",
					"numinlets" : 1,
					"numoutlets" : 2,
					"outlettype" : [ "", "bang" ],
					"parameter_enable" : 0,
					"patching_rect" : [ 783.413607999999954, 149.923120000000011, 55.0, 22.0 ]
				}

			}
, 			{
				"box" : 				{
					"id" : "obj-26",
					"maxclass" : "live.numbox",
					"numinlets" : 1,
					"numoutlets" : 2,
					"outlettype" : [ "", "float" ],
					"parameter_enable" : 1,
					"patching_rect" : [ 798.245579302310944, 270.175426840782166, 46.168028324842453, 15.0 ],
					"saved_attribute_attributes" : 					{
						"valueof" : 						{
							"parameter_longname" : "live.numbox[1]",
							"parameter_shortname" : "live.numbox[1]",
							"parameter_type" : 0,
							"parameter_unitstyle" : 0
						}

					}
,
					"varname" : "live.numbox[1]"
				}

			}
, 			{
				"box" : 				{
					"id" : "obj-24",
					"maxclass" : "message",
					"numinlets" : 2,
					"numoutlets" : 1,
					"outlettype" : [ "" ],
					"patching_rect" : [ 404.742445349693298, 74.923120498657227, 35.0, 22.0 ],
					"text" : "open"
				}

			}
, 			{
				"box" : 				{
					"activebgoncolor" : [ 0.427450980392157, 0.427450980392157, 0.427450980392157, 1.0 ],
					"appearance" : 2,
					"id" : "obj-13",
					"lcdcolor" : [ 1.0, 1.0, 1.0, 1.0 ],
					"maxclass" : "live.text",
					"mode" : 0,
					"numinlets" : 1,
					"numoutlets" : 2,
					"outlettype" : [ "", "" ],
					"parameter_enable" : 1,
					"patching_rect" : [ 423.145306169986725, 11.749284714460373, 64.512820720672607, 33.162392437458038 ],
					"saved_attribute_attributes" : 					{
						"valueof" : 						{
							"parameter_enum" : [ "val1", "val2" ],
							"parameter_longname" : "live.text[1]",
							"parameter_mmax" : 1.0,
							"parameter_shortname" : "live.text",
							"parameter_type" : 1,
							"parameter_unitstyle" : 0
						}

					}
,
					"text" : "Settings",
					"texton" : "Record",
					"transition" : 1,
					"usesvgviewbox" : 1,
					"varname" : "live.text[1]"
				}

			}
, 			{
				"box" : 				{
					"id" : "obj-1",
					"maxclass" : "newobj",
					"numinlets" : 1,
					"numoutlets" : 2,
					"outlettype" : [ "signal", "signal" ],
					"patching_rect" : [ 404.742445349693298, 105.0, 35.0, 22.0 ],
					"text" : "adc~"
				}

			}
, 			{
				"box" : 				{
					"color" : [ 0.701960784313725, 0.415686274509804, 0.886274509803922, 1.0 ],
					"id" : "obj-96",
					"maxclass" : "newobj",
					"numinlets" : 1,
					"numoutlets" : 0,
					"patching_rect" : [ 887.830059260129929, 105.0, 119.702700853347778, 22.0 ],
					"text" : "send~ attSignal"
				}

			}
, 			{
				"box" : 				{
					"bgcolor" : [ 0.847058823529412, 0.847058823529412, 0.847058823529412, 1.0 ],
					"bubble" : 1,
					"bubbleside" : 3,
					"bubbleusescolors" : 1,
					"id" : "obj-95",
					"maxclass" : "comment",
					"numinlets" : 1,
					"numoutlets" : 0,
					"patching_rect" : [ 479.023942604660988, 164.923120498657227, 106.490589827299118, 24.0 ],
					"text" : "Global Trigger"
				}

			}
, 			{
				"box" : 				{
					"color" : [ 0.294117647058824, 0.513725490196078, 0.694117647058824, 1.0 ],
					"id" : "obj-93",
					"maxclass" : "newobj",
					"numinlets" : 0,
					"numoutlets" : 1,
					"outlettype" : [ "" ],
					"patching_rect" : [ 431.165069043636322, 649.0, 113.0, 22.0 ],
					"text" : "r tempoCountReset"
				}

			}
, 			{
				"box" : 				{
					"color" : [ 0.427450980392157, 0.741176470588235, 1.0, 1.0 ],
					"id" : "obj-89",
					"maxclass" : "newobj",
					"numinlets" : 1,
					"numoutlets" : 0,
					"patching_rect" : [ 630.656857997179031, 200.405405044555664, 115.0, 22.0 ],
					"text" : "s tempoCountReset"
				}

			}
, 			{
				"box" : 				{
					"color" : [ 0.294117647058824, 0.513725490196078, 0.694117647058824, 1.0 ],
					"id" : "obj-88",
					"maxclass" : "newobj",
					"numinlets" : 0,
					"numoutlets" : 1,
					"outlettype" : [ "" ],
					"patching_rect" : [ 400.769237518310547, 561.923120498657227, 49.0, 22.0 ],
					"text" : "r tempo"
				}

			}
, 			{
				"box" : 				{
					"color" : [ 0.427450980392157, 0.741176470588235, 1.0, 1.0 ],
					"id" : "obj-87",
					"maxclass" : "newobj",
					"numinlets" : 1,
					"numoutlets" : 0,
					"patching_rect" : [ 500.769237518310547, 78.0, 51.0, 22.0 ],
					"text" : "s tempo"
				}

			}
, 			{
				"box" : 				{
					"id" : "obj-82",
					"maxclass" : "message",
					"numinlets" : 2,
					"numoutlets" : 1,
					"outlettype" : [ "" ],
					"patching_rect" : [ 696.156857997179031, 277.72973108291626, 29.5, 22.0 ],
					"text" : "0"
				}

			}
, 			{
				"box" : 				{
					"id" : "obj-83",
					"maxclass" : "message",
					"numinlets" : 2,
					"numoutlets" : 1,
					"outlettype" : [ "" ],
					"patching_rect" : [ 665.656857997179031, 277.72973108291626, 29.5, 22.0 ],
					"text" : "1"
				}

			}
, 			{
				"box" : 				{
					"id" : "obj-84",
					"maxclass" : "newobj",
					"numinlets" : 3,
					"numoutlets" : 3,
					"outlettype" : [ "bang", "bang", "" ],
					"patching_rect" : [ 665.656857997179031, 247.72973108291626, 80.0, 22.0 ],
					"text" : "select 0 1"
				}

			}
, 			{
				"box" : 				{
					"id" : "obj-71",
					"maxclass" : "newobj",
					"numinlets" : 1,
					"numoutlets" : 1,
					"outlettype" : [ "" ],
					"patching_rect" : [ 772.413607627153397, 277.891889095306396, 72.0, 22.0 ],
					"text" : "prepend set"
				}

			}
, 			{
				"box" : 				{
					"id" : "obj-57",
					"maxclass" : "message",
					"numinlets" : 2,
					"numoutlets" : 1,
					"outlettype" : [ "" ],
					"patching_rect" : [ 696.156857997179031, 149.923120498657227, 29.5, 22.0 ],
					"text" : "0"
				}

			}
, 			{
				"box" : 				{
					"id" : "obj-55",
					"maxclass" : "message",
					"numinlets" : 2,
					"numoutlets" : 1,
					"outlettype" : [ "" ],
					"patching_rect" : [ 665.656857997179031, 149.923120498657227, 29.5, 22.0 ],
					"text" : "1"
				}

			}
, 			{
				"box" : 				{
					"id" : "obj-51",
					"maxclass" : "newobj",
					"numinlets" : 3,
					"numoutlets" : 3,
					"outlettype" : [ "bang", "bang", "" ],
					"patching_rect" : [ 665.656857997179031, 119.923120498657227, 80.0, 22.0 ],
					"text" : "select 0 1"
				}

			}
, 			{
				"box" : 				{
					"focusbordercolor" : [ 0.427450980392157, 0.843137254901961, 1.0, 1.0 ],
					"id" : "obj-43",
					"lastchannelcount" : 0,
					"maxclass" : "live.gain~",
					"numinlets" : 2,
					"numoutlets" : 5,
					"orientation" : 1,
					"outlettype" : [ "signal", "signal", "", "float", "list" ],
					"parameter_enable" : 1,
					"patching_rect" : [ 887.830059260129929, 11.749284714460373, 137.0, 36.0 ],
					"saved_attribute_attributes" : 					{
						"valueof" : 						{
							"parameter_longname" : "live.gain~",
							"parameter_mmax" : 6.0,
							"parameter_mmin" : -70.0,
							"parameter_shortname" : "live.gain~",
							"parameter_type" : 0,
							"parameter_unitstyle" : 4
						}

					}
,
					"showname" : 0,
					"textcolor" : [ 0.427450980392157, 0.843137254901961, 1.0, 1.0 ],
					"tribordercolor" : [ 0.427450980392157, 0.843137254901961, 1.0, 1.0 ],
					"varname" : "live.gain~"
				}

			}
, 			{
				"box" : 				{
					"activebgcolor" : [ 0.313725490196078, 0.180392156862745, 0.180392156862745, 1.0 ],
					"activeslidercolor" : [ 0.850980392156863, 0.427450980392157, 1.0, 1.0 ],
					"activetricolor2" : [ 0.850980392156863, 0.427450980392157, 1.0, 1.0 ],
					"appearance" : 4,
					"bordercolor" : [ 0.850980392156863, 0.427450980392157, 1.0, 1.0 ],
					"focusbordercolor" : [ 0.850980392156863, 0.427450980392157, 1.0, 0.0 ],
					"fontface" : 1,
					"id" : "obj-37",
					"lcdbgcolor" : [ 0.0, 0.0, 0.0, 1.0 ],
					"lcdcolor" : [ 0.850980392156863, 0.427450980392157, 1.0, 1.0 ],
					"maxclass" : "live.numbox",
					"numinlets" : 1,
					"numoutlets" : 2,
					"outlettype" : [ "", "float" ],
					"parameter_enable" : 1,
					"parameter_mappable" : 0,
					"patching_rect" : [ 500.769237518310547, 11.80192490321636, 65.339181184768677, 33.109752248702051 ],
					"presentation" : 1,
					"presentation_rect" : [ 549.080948233604431, 168.216458559036255, 49.0, 15.0 ],
					"saved_attribute_attributes" : 					{
						"valueof" : 						{
							"parameter_initial" : [ 131 ],
							"parameter_initial_enable" : 1,
							"parameter_longname" : "live.numbox",
							"parameter_mmax" : 150.0,
							"parameter_mmin" : 120.0,
							"parameter_shortname" : "live.numbox",
							"parameter_type" : 1,
							"parameter_units" : "BPM",
							"parameter_unitstyle" : 9
						}

					}
,
					"textcolor" : [ 0.850980392156863, 0.427450980392157, 1.0, 1.0 ],
					"tricolor2" : [ 0.941176470588235, 0.776470588235294, 1.0, 1.0 ],
					"varname" : "live.numbox"
				}

			}
, 			{
				"box" : 				{
					"activebgoncolor" : [ 1.0, 0.196078431372549, 0.196078431372549, 1.0 ],
					"appearance" : 2,
					"id" : "obj-32",
					"lcdcolor" : [ 1.0, 0.196078431372549, 0.196078431372549, 1.0 ],
					"maxclass" : "live.text",
					"numinlets" : 1,
					"numoutlets" : 2,
					"outlettype" : [ "", "" ],
					"parameter_enable" : 1,
					"patching_rect" : [ 791.924663037061691, 11.749284714460373, 64.512820720672607, 33.162392437458038 ],
					"saved_attribute_attributes" : 					{
						"valueof" : 						{
							"parameter_enum" : [ "val1", "val2" ],
							"parameter_longname" : "live.text",
							"parameter_mmax" : 1,
							"parameter_shortname" : "live.text",
							"parameter_type" : 2
						}

					}
,
					"text" : "Record",
					"texton" : "Record",
					"varname" : "live.text"
				}

			}
, 			{
				"box" : 				{
					"color" : [ 0.486274509803922, 0.286274509803922, 0.615686274509804, 1.0 ],
					"id" : "obj-21",
					"maxclass" : "newobj",
					"numinlets" : 1,
					"numoutlets" : 1,
					"outlettype" : [ "signal" ],
					"patching_rect" : [ 887.830059260129929, 63.718526184558868, 120.0, 22.0 ],
					"text" : "receive~ audioSignal"
				}

			}
, 			{
				"box" : 				{
					"appearance" : 1,
					"id" : "obj-6",
					"maxclass" : "live.tab",
					"multiline" : 0,
					"num_lines_patching" : 1,
					"num_lines_presentation" : 0,
					"numinlets" : 1,
					"numoutlets" : 3,
					"outlettype" : [ "", "", "float" ],
					"parameter_enable" : 1,
					"patching_rect" : [ 665.656857997179031, 11.749284714460373, 126.26780503988266, 33.162392437458038 ],
					"saved_attribute_attributes" : 					{
						"valueof" : 						{
							"parameter_enum" : [ "Play", "Stop" ],
							"parameter_longname" : "live.tab",
							"parameter_mmax" : 1,
							"parameter_shortname" : "live.tab",
							"parameter_type" : 2,
							"parameter_unitstyle" : 9
						}

					}
,
					"spacing_x" : 7.0,
					"varname" : "live.tab"
				}

			}
, 			{
				"box" : 				{
					"bgcolor" : [ 0.847058823529412, 0.847058823529412, 0.847058823529412, 1.0 ],
					"bubble" : 1,
					"bubbleusescolors" : 1,
					"id" : "obj-514",
					"maxclass" : "comment",
					"numinlets" : 1,
					"numoutlets" : 0,
					"patching_rect" : [ 850.769237518310547, 1296.923120498657227, 150.0, 24.0 ],
					"text" : "Sequencer as bpatcher"
				}

			}
, 			{
				"box" : 				{
					"bgcolor" : [ 0.847058823529412, 0.847058823529412, 0.847058823529412, 1.0 ],
					"bubble" : 1,
					"bubbleusescolors" : 1,
					"id" : "obj-513",
					"linecount" : 2,
					"maxclass" : "comment",
					"numinlets" : 1,
					"numoutlets" : 0,
					"patching_rect" : [ 850.769237518310547, 1131.923120498657227, 150.0, 38.0 ],
					"text" : "Increments over specified # of bars"
				}

			}
, 			{
				"box" : 				{
					"bgcolor" : [ 0.847058823529412, 0.847058823529412, 0.847058823529412, 1.0 ],
					"bubble" : 1,
					"bubbleusescolors" : 1,
					"id" : "obj-512",
					"linecount" : 2,
					"maxclass" : "comment",
					"numinlets" : 1,
					"numoutlets" : 0,
					"patching_rect" : [ 850.769237518310547, 966.923120498657227, 150.0, 38.0 ],
					"text" : "Logic Switch based on Sequencer Length"
				}

			}
, 			{
				"box" : 				{
					"id" : "obj-492",
					"maxclass" : "newobj",
					"numinlets" : 18,
					"numoutlets" : 1,
					"outlettype" : [ "int" ],
					"patcher" : 					{
						"fileversion" : 1,
						"appversion" : 						{
							"major" : 8,
							"minor" : 1,
							"revision" : 11,
							"architecture" : "x64",
							"modernui" : 1
						}
,
						"classnamespace" : "box",
						"rect" : [ 988.0, 85.0, 890.0, 930.0 ],
						"bglocked" : 0,
						"openinpresentation" : 0,
						"default_fontsize" : 12.0,
						"default_fontface" : 0,
						"default_fontname" : "Arial",
						"gridonopen" : 1,
						"gridsize" : [ 15.0, 15.0 ],
						"gridsnaponopen" : 1,
						"objectsnaponopen" : 1,
						"statusbarvisible" : 2,
						"toolbarvisible" : 1,
						"lefttoolbarpinned" : 0,
						"toptoolbarpinned" : 0,
						"righttoolbarpinned" : 0,
						"bottomtoolbarpinned" : 0,
						"toolbars_unpinned_last_save" : 0,
						"tallnewobj" : 0,
						"boxanimatetime" : 200,
						"enablehscroll" : 1,
						"enablevscroll" : 1,
						"devicewidth" : 0.0,
						"description" : "",
						"digest" : "",
						"tags" : "",
						"style" : "",
						"subpatcher_template" : "",
						"assistshowspatchername" : 0,
						"boxes" : [ 							{
								"box" : 								{
									"comment" : "",
									"id" : "obj-1",
									"index" : 18,
									"maxclass" : "inlet",
									"numinlets" : 0,
									"numoutlets" : 1,
									"outlettype" : [ "int" ],
									"patching_rect" : [ 1575.0, 40.0, 30.0, 30.0 ]
								}

							}
, 							{
								"box" : 								{
									"id" : "obj-434",
									"maxclass" : "newobj",
									"numinlets" : 5,
									"numoutlets" : 4,
									"outlettype" : [ "int", "", "", "int" ],
									"patching_rect" : [ 1445.0, 310.0, 75.0, 22.0 ],
									"text" : "counter 0 15"
								}

							}
, 							{
								"box" : 								{
									"id" : "obj-432",
									"maxclass" : "newobj",
									"numinlets" : 5,
									"numoutlets" : 4,
									"outlettype" : [ "int", "", "", "int" ],
									"patching_rect" : [ 1355.0, 310.0, 75.0, 22.0 ],
									"text" : "counter 0 14"
								}

							}
, 							{
								"box" : 								{
									"id" : "obj-431",
									"maxclass" : "newobj",
									"numinlets" : 5,
									"numoutlets" : 4,
									"outlettype" : [ "int", "", "", "int" ],
									"patching_rect" : [ 1265.0, 310.0, 75.0, 22.0 ],
									"text" : "counter 0 13"
								}

							}
, 							{
								"box" : 								{
									"id" : "obj-430",
									"maxclass" : "newobj",
									"numinlets" : 5,
									"numoutlets" : 4,
									"outlettype" : [ "int", "", "", "int" ],
									"patching_rect" : [ 1175.0, 310.0, 75.0, 22.0 ],
									"text" : "counter 0 12"
								}

							}
, 							{
								"box" : 								{
									"id" : "obj-429",
									"maxclass" : "newobj",
									"numinlets" : 5,
									"numoutlets" : 4,
									"outlettype" : [ "int", "", "", "int" ],
									"patching_rect" : [ 1085.0, 310.0, 74.0, 22.0 ],
									"text" : "counter 0 11"
								}

							}
, 							{
								"box" : 								{
									"id" : "obj-428",
									"maxclass" : "newobj",
									"numinlets" : 5,
									"numoutlets" : 4,
									"outlettype" : [ "int", "", "", "int" ],
									"patching_rect" : [ 995.0, 310.0, 75.0, 22.0 ],
									"text" : "counter 0 10"
								}

							}
, 							{
								"box" : 								{
									"id" : "obj-427",
									"maxclass" : "newobj",
									"numinlets" : 5,
									"numoutlets" : 4,
									"outlettype" : [ "int", "", "", "int" ],
									"patching_rect" : [ 905.0, 310.0, 69.0, 22.0 ],
									"text" : "counter 0 9"
								}

							}
, 							{
								"box" : 								{
									"id" : "obj-426",
									"maxclass" : "newobj",
									"numinlets" : 5,
									"numoutlets" : 4,
									"outlettype" : [ "int", "", "", "int" ],
									"patching_rect" : [ 815.0, 310.0, 69.0, 22.0 ],
									"text" : "counter 0 8"
								}

							}
, 							{
								"box" : 								{
									"id" : "obj-425",
									"maxclass" : "newobj",
									"numinlets" : 5,
									"numoutlets" : 4,
									"outlettype" : [ "int", "", "", "int" ],
									"patching_rect" : [ 740.0, 310.0, 69.0, 22.0 ],
									"text" : "counter 0 7"
								}

							}
, 							{
								"box" : 								{
									"id" : "obj-424",
									"maxclass" : "newobj",
									"numinlets" : 5,
									"numoutlets" : 4,
									"outlettype" : [ "int", "", "", "int" ],
									"patching_rect" : [ 650.0, 310.0, 69.0, 22.0 ],
									"text" : "counter 0 6"
								}

							}
, 							{
								"box" : 								{
									"id" : "obj-423",
									"maxclass" : "newobj",
									"numinlets" : 5,
									"numoutlets" : 4,
									"outlettype" : [ "int", "", "", "int" ],
									"patching_rect" : [ 560.0, 310.0, 69.0, 22.0 ],
									"text" : "counter 0 5"
								}

							}
, 							{
								"box" : 								{
									"id" : "obj-422",
									"maxclass" : "newobj",
									"numinlets" : 5,
									"numoutlets" : 4,
									"outlettype" : [ "int", "", "", "int" ],
									"patching_rect" : [ 470.0, 310.0, 69.0, 22.0 ],
									"text" : "counter 0 4"
								}

							}
, 							{
								"box" : 								{
									"bubble" : 1,
									"id" : "obj-24",
									"linecount" : 3,
									"maxclass" : "comment",
									"numinlets" : 1,
									"numoutlets" : 0,
									"patching_rect" : [ 1640.0, 430.0, 225.0, 52.0 ],
									"text" : "Tells all counters what the bar counter is when No. of Bars Selector is changed mid-sequence"
								}

							}
, 							{
								"box" : 								{
									"bubble" : 1,
									"id" : "obj-17",
									"maxclass" : "comment",
									"numinlets" : 1,
									"numoutlets" : 0,
									"patching_rect" : [ 138.000000000000114, 100.0, 195.0, 24.0 ],
									"text" : "Resets ALL counters on re-start"
								}

							}
, 							{
								"box" : 								{
									"bubble" : 1,
									"bubbleside" : 3,
									"id" : "obj-13",
									"linecount" : 4,
									"maxclass" : "comment",
									"numinlets" : 1,
									"numoutlets" : 0,
									"patching_rect" : [ 50.0, 295.0, 72.0, 66.0 ],
									"text" : "Counter based on bar selector"
								}

							}
, 							{
								"box" : 								{
									"id" : "obj-26",
									"maxclass" : "newobj",
									"numinlets" : 1,
									"numoutlets" : 1,
									"outlettype" : [ "bang" ],
									"patching_rect" : [ 1460.0, 310.0, 22.0, 22.0 ],
									"text" : "t b"
								}

							}
, 							{
								"box" : 								{
									"id" : "obj-23",
									"maxclass" : "message",
									"numinlets" : 2,
									"numoutlets" : 1,
									"outlettype" : [ "" ],
									"patching_rect" : [ 1580.0, 445.0, 50.0, 22.0 ],
									"text" : "0"
								}

							}
, 							{
								"box" : 								{
									"id" : "obj-411",
									"maxclass" : "message",
									"numinlets" : 2,
									"numoutlets" : 1,
									"outlettype" : [ "" ],
									"patching_rect" : [ 155.000000000000114, 310.0, 29.5, 22.0 ],
									"text" : "0"
								}

							}
, 							{
								"box" : 								{
									"id" : "obj-3",
									"maxclass" : "newobj",
									"numinlets" : 5,
									"numoutlets" : 4,
									"outlettype" : [ "int", "", "", "int" ],
									"patching_rect" : [ 379.99993900000004, 310.0, 71.0, 22.0 ],
									"text" : "counter 0 3"
								}

							}
, 							{
								"box" : 								{
									"id" : "obj-335",
									"maxclass" : "newobj",
									"numinlets" : 5,
									"numoutlets" : 4,
									"outlettype" : [ "int", "", "", "int" ],
									"patching_rect" : [ 290.0, 310.0, 71.0, 22.0 ],
									"text" : "counter 0 2"
								}

							}
, 							{
								"box" : 								{
									"id" : "obj-336",
									"maxclass" : "newobj",
									"numinlets" : 5,
									"numoutlets" : 4,
									"outlettype" : [ "int", "", "", "int" ],
									"patching_rect" : [ 200.000000000000114, 310.0, 71.0, 22.0 ],
									"text" : "counter 0 1"
								}

							}
, 							{
								"box" : 								{
									"id" : "obj-386",
									"maxclass" : "message",
									"numinlets" : 2,
									"numoutlets" : 1,
									"outlettype" : [ "" ],
									"patching_rect" : [ 92.5, 100.0, 29.5, 22.0 ],
									"text" : "0"
								}

							}
, 							{
								"box" : 								{
									"comment" : "",
									"id" : "obj-474",
									"index" : 2,
									"maxclass" : "inlet",
									"numinlets" : 0,
									"numoutlets" : 1,
									"outlettype" : [ "" ],
									"patching_rect" : [ 155.0, 40.0, 30.0, 30.0 ]
								}

							}
, 							{
								"box" : 								{
									"comment" : "",
									"id" : "obj-475",
									"index" : 3,
									"maxclass" : "inlet",
									"numinlets" : 0,
									"numoutlets" : 1,
									"outlettype" : [ "" ],
									"patching_rect" : [ 200.0, 40.0, 30.0, 30.0 ]
								}

							}
, 							{
								"box" : 								{
									"comment" : "",
									"id" : "obj-476",
									"index" : 4,
									"maxclass" : "inlet",
									"numinlets" : 0,
									"numoutlets" : 1,
									"outlettype" : [ "" ],
									"patching_rect" : [ 290.0, 40.0, 30.0, 30.0 ]
								}

							}
, 							{
								"box" : 								{
									"comment" : "",
									"id" : "obj-477",
									"index" : 5,
									"maxclass" : "inlet",
									"numinlets" : 0,
									"numoutlets" : 1,
									"outlettype" : [ "" ],
									"patching_rect" : [ 379.99993900000004, 40.0, 30.0, 30.0 ]
								}

							}
, 							{
								"box" : 								{
									"comment" : "",
									"id" : "obj-478",
									"index" : 6,
									"maxclass" : "inlet",
									"numinlets" : 0,
									"numoutlets" : 1,
									"outlettype" : [ "" ],
									"patching_rect" : [ 470.0, 40.0, 30.0, 30.0 ]
								}

							}
, 							{
								"box" : 								{
									"comment" : "",
									"id" : "obj-479",
									"index" : 7,
									"maxclass" : "inlet",
									"numinlets" : 0,
									"numoutlets" : 1,
									"outlettype" : [ "" ],
									"patching_rect" : [ 560.0, 40.0, 30.0, 30.0 ]
								}

							}
, 							{
								"box" : 								{
									"comment" : "",
									"id" : "obj-480",
									"index" : 8,
									"maxclass" : "inlet",
									"numinlets" : 0,
									"numoutlets" : 1,
									"outlettype" : [ "" ],
									"patching_rect" : [ 650.0, 40.0, 30.0, 30.0 ]
								}

							}
, 							{
								"box" : 								{
									"comment" : "",
									"id" : "obj-481",
									"index" : 1,
									"maxclass" : "inlet",
									"numinlets" : 0,
									"numoutlets" : 1,
									"outlettype" : [ "int" ],
									"patching_rect" : [ 92.5, 40.0, 30.0, 30.0 ]
								}

							}
, 							{
								"box" : 								{
									"comment" : "",
									"id" : "obj-482",
									"index" : 9,
									"maxclass" : "inlet",
									"numinlets" : 0,
									"numoutlets" : 1,
									"outlettype" : [ "" ],
									"patching_rect" : [ 775.0, 40.0, 30.0, 30.0 ]
								}

							}
, 							{
								"box" : 								{
									"comment" : "",
									"id" : "obj-483",
									"index" : 10,
									"maxclass" : "inlet",
									"numinlets" : 0,
									"numoutlets" : 1,
									"outlettype" : [ "" ],
									"patching_rect" : [ 815.0, 40.0, 30.0, 30.0 ]
								}

							}
, 							{
								"box" : 								{
									"comment" : "",
									"id" : "obj-484",
									"index" : 11,
									"maxclass" : "inlet",
									"numinlets" : 0,
									"numoutlets" : 1,
									"outlettype" : [ "" ],
									"patching_rect" : [ 905.0, 40.0, 30.0, 30.0 ]
								}

							}
, 							{
								"box" : 								{
									"comment" : "",
									"id" : "obj-485",
									"index" : 12,
									"maxclass" : "inlet",
									"numinlets" : 0,
									"numoutlets" : 1,
									"outlettype" : [ "" ],
									"patching_rect" : [ 995.0, 40.0, 30.0, 30.0 ]
								}

							}
, 							{
								"box" : 								{
									"comment" : "",
									"id" : "obj-486",
									"index" : 13,
									"maxclass" : "inlet",
									"numinlets" : 0,
									"numoutlets" : 1,
									"outlettype" : [ "" ],
									"patching_rect" : [ 1085.0, 40.0, 30.0, 30.0 ]
								}

							}
, 							{
								"box" : 								{
									"comment" : "",
									"id" : "obj-487",
									"index" : 14,
									"maxclass" : "inlet",
									"numinlets" : 0,
									"numoutlets" : 1,
									"outlettype" : [ "" ],
									"patching_rect" : [ 1175.0, 40.0, 30.0, 30.0 ]
								}

							}
, 							{
								"box" : 								{
									"comment" : "",
									"id" : "obj-488",
									"index" : 15,
									"maxclass" : "inlet",
									"numinlets" : 0,
									"numoutlets" : 1,
									"outlettype" : [ "" ],
									"patching_rect" : [ 1265.0, 40.0, 30.0, 30.0 ]
								}

							}
, 							{
								"box" : 								{
									"comment" : "",
									"id" : "obj-489",
									"index" : 16,
									"maxclass" : "inlet",
									"numinlets" : 0,
									"numoutlets" : 1,
									"outlettype" : [ "" ],
									"patching_rect" : [ 1355.0, 40.0, 30.0, 30.0 ]
								}

							}
, 							{
								"box" : 								{
									"comment" : "",
									"id" : "obj-490",
									"index" : 17,
									"maxclass" : "inlet",
									"numinlets" : 0,
									"numoutlets" : 1,
									"outlettype" : [ "" ],
									"patching_rect" : [ 1445.0, 40.0, 30.0, 30.0 ]
								}

							}
, 							{
								"box" : 								{
									"comment" : "",
									"id" : "obj-491",
									"index" : 1,
									"maxclass" : "outlet",
									"numinlets" : 1,
									"numoutlets" : 0,
									"patching_rect" : [ 774.3125, 542.0, 30.0, 30.0 ]
								}

							}
 ],
						"lines" : [ 							{
								"patchline" : 								{
									"destination" : [ "obj-23", 0 ],
									"source" : [ "obj-1", 0 ]
								}

							}
, 							{
								"patchline" : 								{
									"destination" : [ "obj-3", 3 ],
									"order" : 12,
									"source" : [ "obj-23", 0 ]
								}

							}
, 							{
								"patchline" : 								{
									"destination" : [ "obj-335", 3 ],
									"order" : 13,
									"source" : [ "obj-23", 0 ]
								}

							}
, 							{
								"patchline" : 								{
									"destination" : [ "obj-336", 3 ],
									"order" : 14,
									"source" : [ "obj-23", 0 ]
								}

							}
, 							{
								"patchline" : 								{
									"destination" : [ "obj-422", 3 ],
									"order" : 11,
									"source" : [ "obj-23", 0 ]
								}

							}
, 							{
								"patchline" : 								{
									"destination" : [ "obj-423", 3 ],
									"order" : 10,
									"source" : [ "obj-23", 0 ]
								}

							}
, 							{
								"patchline" : 								{
									"destination" : [ "obj-424", 3 ],
									"order" : 9,
									"source" : [ "obj-23", 0 ]
								}

							}
, 							{
								"patchline" : 								{
									"destination" : [ "obj-425", 3 ],
									"order" : 8,
									"source" : [ "obj-23", 0 ]
								}

							}
, 							{
								"patchline" : 								{
									"destination" : [ "obj-426", 3 ],
									"order" : 7,
									"source" : [ "obj-23", 0 ]
								}

							}
, 							{
								"patchline" : 								{
									"destination" : [ "obj-427", 3 ],
									"order" : 6,
									"source" : [ "obj-23", 0 ]
								}

							}
, 							{
								"patchline" : 								{
									"destination" : [ "obj-428", 3 ],
									"order" : 5,
									"source" : [ "obj-23", 0 ]
								}

							}
, 							{
								"patchline" : 								{
									"destination" : [ "obj-429", 3 ],
									"order" : 4,
									"source" : [ "obj-23", 0 ]
								}

							}
, 							{
								"patchline" : 								{
									"destination" : [ "obj-430", 3 ],
									"order" : 3,
									"source" : [ "obj-23", 0 ]
								}

							}
, 							{
								"patchline" : 								{
									"destination" : [ "obj-431", 3 ],
									"order" : 2,
									"source" : [ "obj-23", 0 ]
								}

							}
, 							{
								"patchline" : 								{
									"destination" : [ "obj-432", 3 ],
									"order" : 1,
									"source" : [ "obj-23", 0 ]
								}

							}
, 							{
								"patchline" : 								{
									"destination" : [ "obj-434", 3 ],
									"order" : 0,
									"source" : [ "obj-23", 0 ]
								}

							}
, 							{
								"patchline" : 								{
									"destination" : [ "obj-23", 1 ],
									"order" : 0,
									"source" : [ "obj-3", 0 ]
								}

							}
, 							{
								"patchline" : 								{
									"destination" : [ "obj-491", 0 ],
									"order" : 1,
									"source" : [ "obj-3", 0 ]
								}

							}
, 							{
								"patchline" : 								{
									"destination" : [ "obj-23", 1 ],
									"order" : 0,
									"source" : [ "obj-335", 0 ]
								}

							}
, 							{
								"patchline" : 								{
									"destination" : [ "obj-491", 0 ],
									"order" : 1,
									"source" : [ "obj-335", 0 ]
								}

							}
, 							{
								"patchline" : 								{
									"destination" : [ "obj-23", 1 ],
									"order" : 0,
									"source" : [ "obj-336", 0 ]
								}

							}
, 							{
								"patchline" : 								{
									"destination" : [ "obj-491", 0 ],
									"order" : 1,
									"source" : [ "obj-336", 0 ]
								}

							}
, 							{
								"patchline" : 								{
									"destination" : [ "obj-3", 2 ],
									"order" : 12,
									"source" : [ "obj-386", 0 ]
								}

							}
, 							{
								"patchline" : 								{
									"destination" : [ "obj-335", 2 ],
									"order" : 13,
									"source" : [ "obj-386", 0 ]
								}

							}
, 							{
								"patchline" : 								{
									"destination" : [ "obj-336", 2 ],
									"order" : 14,
									"source" : [ "obj-386", 0 ]
								}

							}
, 							{
								"patchline" : 								{
									"destination" : [ "obj-422", 2 ],
									"order" : 11,
									"source" : [ "obj-386", 0 ]
								}

							}
, 							{
								"patchline" : 								{
									"destination" : [ "obj-423", 2 ],
									"order" : 10,
									"source" : [ "obj-386", 0 ]
								}

							}
, 							{
								"patchline" : 								{
									"destination" : [ "obj-424", 2 ],
									"order" : 9,
									"source" : [ "obj-386", 0 ]
								}

							}
, 							{
								"patchline" : 								{
									"destination" : [ "obj-425", 2 ],
									"order" : 8,
									"source" : [ "obj-386", 0 ]
								}

							}
, 							{
								"patchline" : 								{
									"destination" : [ "obj-426", 2 ],
									"order" : 7,
									"source" : [ "obj-386", 0 ]
								}

							}
, 							{
								"patchline" : 								{
									"destination" : [ "obj-427", 2 ],
									"order" : 6,
									"source" : [ "obj-386", 0 ]
								}

							}
, 							{
								"patchline" : 								{
									"destination" : [ "obj-428", 2 ],
									"order" : 5,
									"source" : [ "obj-386", 0 ]
								}

							}
, 							{
								"patchline" : 								{
									"destination" : [ "obj-429", 2 ],
									"order" : 4,
									"source" : [ "obj-386", 0 ]
								}

							}
, 							{
								"patchline" : 								{
									"destination" : [ "obj-430", 2 ],
									"order" : 3,
									"source" : [ "obj-386", 0 ]
								}

							}
, 							{
								"patchline" : 								{
									"destination" : [ "obj-431", 2 ],
									"order" : 2,
									"source" : [ "obj-386", 0 ]
								}

							}
, 							{
								"patchline" : 								{
									"destination" : [ "obj-432", 2 ],
									"order" : 1,
									"source" : [ "obj-386", 0 ]
								}

							}
, 							{
								"patchline" : 								{
									"destination" : [ "obj-434", 2 ],
									"order" : 0,
									"source" : [ "obj-386", 0 ]
								}

							}
, 							{
								"patchline" : 								{
									"destination" : [ "obj-23", 1 ],
									"order" : 0,
									"source" : [ "obj-411", 0 ]
								}

							}
, 							{
								"patchline" : 								{
									"destination" : [ "obj-491", 0 ],
									"order" : 1,
									"source" : [ "obj-411", 0 ]
								}

							}
, 							{
								"patchline" : 								{
									"destination" : [ "obj-23", 1 ],
									"order" : 0,
									"source" : [ "obj-422", 0 ]
								}

							}
, 							{
								"patchline" : 								{
									"destination" : [ "obj-491", 0 ],
									"order" : 1,
									"source" : [ "obj-422", 0 ]
								}

							}
, 							{
								"patchline" : 								{
									"destination" : [ "obj-23", 1 ],
									"order" : 0,
									"source" : [ "obj-423", 0 ]
								}

							}
, 							{
								"patchline" : 								{
									"destination" : [ "obj-491", 0 ],
									"order" : 1,
									"source" : [ "obj-423", 0 ]
								}

							}
, 							{
								"patchline" : 								{
									"destination" : [ "obj-23", 1 ],
									"order" : 0,
									"source" : [ "obj-424", 0 ]
								}

							}
, 							{
								"patchline" : 								{
									"destination" : [ "obj-491", 0 ],
									"order" : 1,
									"source" : [ "obj-424", 0 ]
								}

							}
, 							{
								"patchline" : 								{
									"destination" : [ "obj-23", 1 ],
									"order" : 0,
									"source" : [ "obj-425", 0 ]
								}

							}
, 							{
								"patchline" : 								{
									"destination" : [ "obj-491", 0 ],
									"order" : 1,
									"source" : [ "obj-425", 0 ]
								}

							}
, 							{
								"patchline" : 								{
									"destination" : [ "obj-23", 1 ],
									"order" : 0,
									"source" : [ "obj-426", 0 ]
								}

							}
, 							{
								"patchline" : 								{
									"destination" : [ "obj-491", 0 ],
									"order" : 1,
									"source" : [ "obj-426", 0 ]
								}

							}
, 							{
								"patchline" : 								{
									"destination" : [ "obj-23", 1 ],
									"order" : 0,
									"source" : [ "obj-427", 0 ]
								}

							}
, 							{
								"patchline" : 								{
									"destination" : [ "obj-491", 0 ],
									"order" : 1,
									"source" : [ "obj-427", 0 ]
								}

							}
, 							{
								"patchline" : 								{
									"destination" : [ "obj-23", 1 ],
									"order" : 0,
									"source" : [ "obj-428", 0 ]
								}

							}
, 							{
								"patchline" : 								{
									"destination" : [ "obj-491", 0 ],
									"order" : 1,
									"source" : [ "obj-428", 0 ]
								}

							}
, 							{
								"patchline" : 								{
									"destination" : [ "obj-23", 1 ],
									"order" : 0,
									"source" : [ "obj-429", 0 ]
								}

							}
, 							{
								"patchline" : 								{
									"destination" : [ "obj-491", 0 ],
									"order" : 1,
									"source" : [ "obj-429", 0 ]
								}

							}
, 							{
								"patchline" : 								{
									"destination" : [ "obj-23", 1 ],
									"order" : 0,
									"source" : [ "obj-430", 0 ]
								}

							}
, 							{
								"patchline" : 								{
									"destination" : [ "obj-491", 0 ],
									"order" : 1,
									"source" : [ "obj-430", 0 ]
								}

							}
, 							{
								"patchline" : 								{
									"destination" : [ "obj-23", 1 ],
									"order" : 0,
									"source" : [ "obj-431", 0 ]
								}

							}
, 							{
								"patchline" : 								{
									"destination" : [ "obj-491", 0 ],
									"order" : 1,
									"source" : [ "obj-431", 0 ]
								}

							}
, 							{
								"patchline" : 								{
									"destination" : [ "obj-23", 1 ],
									"order" : 0,
									"source" : [ "obj-432", 0 ]
								}

							}
, 							{
								"patchline" : 								{
									"destination" : [ "obj-491", 0 ],
									"order" : 1,
									"source" : [ "obj-432", 0 ]
								}

							}
, 							{
								"patchline" : 								{
									"destination" : [ "obj-23", 1 ],
									"order" : 0,
									"source" : [ "obj-434", 0 ]
								}

							}
, 							{
								"patchline" : 								{
									"destination" : [ "obj-491", 0 ],
									"order" : 1,
									"source" : [ "obj-434", 0 ]
								}

							}
, 							{
								"patchline" : 								{
									"destination" : [ "obj-411", 0 ],
									"source" : [ "obj-474", 0 ]
								}

							}
, 							{
								"patchline" : 								{
									"destination" : [ "obj-336", 0 ],
									"source" : [ "obj-475", 0 ]
								}

							}
, 							{
								"patchline" : 								{
									"destination" : [ "obj-335", 0 ],
									"source" : [ "obj-476", 0 ]
								}

							}
, 							{
								"patchline" : 								{
									"destination" : [ "obj-3", 0 ],
									"source" : [ "obj-477", 0 ]
								}

							}
, 							{
								"patchline" : 								{
									"destination" : [ "obj-422", 0 ],
									"source" : [ "obj-478", 0 ]
								}

							}
, 							{
								"patchline" : 								{
									"destination" : [ "obj-423", 0 ],
									"source" : [ "obj-479", 0 ]
								}

							}
, 							{
								"patchline" : 								{
									"destination" : [ "obj-424", 0 ],
									"source" : [ "obj-480", 0 ]
								}

							}
, 							{
								"patchline" : 								{
									"destination" : [ "obj-386", 0 ],
									"source" : [ "obj-481", 0 ]
								}

							}
, 							{
								"patchline" : 								{
									"destination" : [ "obj-425", 0 ],
									"source" : [ "obj-482", 0 ]
								}

							}
, 							{
								"patchline" : 								{
									"destination" : [ "obj-426", 0 ],
									"source" : [ "obj-483", 0 ]
								}

							}
, 							{
								"patchline" : 								{
									"destination" : [ "obj-427", 0 ],
									"source" : [ "obj-484", 0 ]
								}

							}
, 							{
								"patchline" : 								{
									"destination" : [ "obj-428", 0 ],
									"source" : [ "obj-485", 0 ]
								}

							}
, 							{
								"patchline" : 								{
									"destination" : [ "obj-429", 0 ],
									"source" : [ "obj-486", 0 ]
								}

							}
, 							{
								"patchline" : 								{
									"destination" : [ "obj-430", 0 ],
									"source" : [ "obj-487", 0 ]
								}

							}
, 							{
								"patchline" : 								{
									"destination" : [ "obj-431", 0 ],
									"source" : [ "obj-488", 0 ]
								}

							}
, 							{
								"patchline" : 								{
									"destination" : [ "obj-432", 0 ],
									"source" : [ "obj-489", 0 ]
								}

							}
, 							{
								"patchline" : 								{
									"destination" : [ "obj-434", 0 ],
									"source" : [ "obj-490", 0 ]
								}

							}
 ]
					}
,
					"patching_rect" : [ 460.769237518310547, 1086.923120498657227, 390.178571283817291, 22.0 ],
					"saved_object_attributes" : 					{
						"description" : "",
						"digest" : "",
						"globalpatchername" : "",
						"tags" : ""
					}
,
					"text" : "p barCounter"
				}

			}
, 			{
				"box" : 				{
					"bgmode" : 0,
					"border" : 0,
					"clickthrough" : 0,
					"enablehscroll" : 1,
					"enablevscroll" : 0,
					"id" : "obj-421",
					"lockeddragscroll" : 0,
					"maxclass" : "bpatcher",
					"name" : "variableSequencer.maxpat",
					"numinlets" : 17,
					"numoutlets" : 0,
					"offset" : [ 0.0, 0.0 ],
					"patching_rect" : [ 466.136362075805664, 1254.743644833564758, 2019.0, 698.0 ],
					"viewvisibility" : 1
				}

			}
, 			{
				"box" : 				{
					"bgcolor" : [ 0.847058823529412, 0.847058823529412, 0.847058823529412, 1.0 ],
					"bubble" : 1,
					"bubbleusescolors" : 1,
					"id" : "obj-8",
					"maxclass" : "comment",
					"numinlets" : 1,
					"numoutlets" : 0,
					"patching_rect" : [ 475.769237518310547, 756.923120498657227, 240.0, 24.0 ],
					"text" : "Make sure counter resets before pulse"
				}

			}
, 			{
				"box" : 				{
					"bgcolor" : [ 0.847058823529412, 0.847058823529412, 0.847058823529412, 1.0 ],
					"bubble" : 1,
					"bubbleusescolors" : 1,
					"id" : "obj-340",
					"maxclass" : "comment",
					"numinlets" : 1,
					"numoutlets" : 0,
					"patching_rect" : [ 820.769237518310547, 906.923120498657227, 180.0, 24.0 ],
					"text" : "Sequencer Length (in Bars)"
				}

			}
, 			{
				"box" : 				{
					"id" : "obj-333",
					"maxclass" : "gswitch2",
					"numinlets" : 2,
					"numoutlets" : 16,
					"outlettype" : [ "", "", "", "", "", "", "", "", "", "", "", "", "", "", "", "" ],
					"outputs" : 16,
					"parameter_enable" : 0,
					"patching_rect" : [ 460.769237518310547, 966.923120498657227, 375.0, 90.0 ]
				}

			}
, 			{
				"box" : 				{
					"allowdrag" : 0,
					"bgfillcolor_angle" : 270.0,
					"bgfillcolor_autogradient" : 0,
					"bgfillcolor_color" : [ 0.290196, 0.309804, 0.301961, 1.0 ],
					"bgfillcolor_color1" : [ 0.311041, 0.314599, 0.318357, 1.0 ],
					"bgfillcolor_color2" : [ 0.290196, 0.309804, 0.301961, 1.0 ],
					"bgfillcolor_proportion" : 0.39,
					"bgfillcolor_type" : "gradient",
					"id" : "obj-118",
					"items" : [ 1, "Bar", ",", 2, "Bars", ",", 3, "Bars", ",", 4, "Bars", ",", 5, "Bars", ",", 6, "Bars", ",", 7, "Bars", ",", 8, "Bars", ",", 9, "Bars", ",", 10, "Bars", ",", 11, "Bars", ",", 12, "Bars", ",", 13, "Bars", ",", 14, "Bars", ",", 15, "Bars", ",", 16, "Bars" ],
					"maxclass" : "umenu",
					"numinlets" : 1,
					"numoutlets" : 3,
					"outlettype" : [ "int", "", "" ],
					"parameter_enable" : 0,
					"patching_rect" : [ 715.769237518310547, 906.923120498657227, 100.0, 22.0 ],
					"presentation" : 1,
					"presentation_rect" : [ 60.0, 465.0, 150.0, 22.0 ]
				}

			}
, 			{
				"box" : 				{
					"id" : "obj-5",
					"maxclass" : "newobj",
					"numinlets" : 1,
					"numoutlets" : 1,
					"outlettype" : [ "" ],
					"patching_rect" : [ 424.019237518310547, 757.964787125587463, 36.0, 22.0 ],
					"text" : "defer"
				}

			}
, 			{
				"box" : 				{
					"id" : "obj-7",
					"maxclass" : "newobj",
					"numinlets" : 1,
					"numoutlets" : 1,
					"outlettype" : [ "bang" ],
					"patching_rect" : [ 565.769237518310547, 471.923120498657227, 60.0, 22.0 ],
					"text" : "loadbang"
				}

			}
, 			{
				"box" : 				{
					"id" : "obj-2066",
					"maxclass" : "number",
					"numinlets" : 1,
					"numoutlets" : 2,
					"outlettype" : [ "", "bang" ],
					"parameter_enable" : 0,
					"patching_rect" : [ 538.019233465194702, 711.923120498657227, 50.0, 22.0 ]
				}

			}
, 			{
				"box" : 				{
					"id" : "obj-358",
					"maxclass" : "newobj",
					"numinlets" : 2,
					"numoutlets" : 2,
					"outlettype" : [ "bang", "" ],
					"patching_rect" : [ 355.769240379333496, 757.964787125587463, 52.0, 22.0 ],
					"text" : "select 1"
				}

			}
, 			{
				"box" : 				{
					"id" : "obj-34",
					"maxclass" : "message",
					"numinlets" : 2,
					"numoutlets" : 1,
					"outlettype" : [ "" ],
					"patching_rect" : [ 431.165069043636322, 678.923120498657227, 29.5, 22.0 ],
					"text" : "1"
				}

			}
, 			{
				"box" : 				{
					"id" : "obj-11",
					"items" : [ 1, ",", 2, ",", 4, ",", 8, ",", 16, ",", 32, ",", 64, ",", 128 ],
					"maxclass" : "umenu",
					"numinlets" : 1,
					"numoutlets" : 3,
					"outlettype" : [ "int", "", "" ],
					"parameter_enable" : 0,
					"patching_rect" : [ 490.769237518310547, 561.923120498657227, 45.0, 22.0 ]
				}

			}
, 			{
				"box" : 				{
					"id" : "obj-277",
					"maxclass" : "newobj",
					"numinlets" : 2,
					"numoutlets" : 2,
					"outlettype" : [ "bang", "" ],
					"patching_rect" : [ 589.769237518310547, 119.923120498657227, 59.0, 22.0 ],
					"text" : "select 32"
				}

			}
, 			{
				"box" : 				{
					"id" : "obj-275",
					"maxclass" : "newobj",
					"numinlets" : 0,
					"numoutlets" : 4,
					"outlettype" : [ "int", "int", "int", "int" ],
					"patching_rect" : [ 589.769237518310547, 74.923120498657227, 50.5, 22.0 ],
					"text" : "key"
				}

			}
, 			{
				"box" : 				{
					"id" : "obj-80",
					"maxclass" : "newobj",
					"numinlets" : 5,
					"numoutlets" : 4,
					"outlettype" : [ "int", "", "", "int" ],
					"patching_rect" : [ 355.769237518310547, 711.923120498657227, 169.79166305065155, 22.0 ],
					"text" : "counter 1 16"
				}

			}
, 			{
				"box" : 				{
					"id" : "obj-75",
					"maxclass" : "toggle",
					"numinlets" : 1,
					"numoutlets" : 1,
					"outlettype" : [ "int" ],
					"parameter_enable" : 0,
					"patching_rect" : [ 589.769237518310547, 164.923120498657227, 24.0, 24.0 ]
				}

			}
, 			{
				"box" : 				{
					"id" : "obj-73",
					"maxclass" : "newobj",
					"numinlets" : 4,
					"numoutlets" : 1,
					"outlettype" : [ "int" ],
					"patching_rect" : [ 355.769237518310547, 621.923120498657227, 154.0, 22.0 ],
					"text" : "tempo 131"
				}

			}
, 			{
				"box" : 				{
					"id" : "obj-337",
					"maxclass" : "gswitch2",
					"numinlets" : 2,
					"numoutlets" : 16,
					"outlettype" : [ "", "", "", "", "", "", "", "", "", "", "", "", "", "", "", "" ],
					"outputs" : 16,
					"parameter_enable" : 0,
					"patching_rect" : [ 460.769237518310547, 1131.923120498657227, 375.0, 90.0 ],
					"varname" : "barswitcher"
				}

			}
, 			{
				"box" : 				{
					"id" : "obj-18",
					"maxclass" : "message",
					"numinlets" : 2,
					"numoutlets" : 1,
					"outlettype" : [ "" ],
					"patching_rect" : [ 565.769237518310547, 516.923120498657227, 119.0, 22.0 ],
					"text" : "read kickDefault.wav"
				}

			}
, 			{
				"box" : 				{
					"id" : "obj-9",
					"maxclass" : "newobj",
					"numinlets" : 1,
					"numoutlets" : 2,
					"outlettype" : [ "float", "bang" ],
					"patching_rect" : [ 565.769237518310547, 561.923120498657227, 72.0, 22.0 ],
					"text" : "buffer~ kick"
				}

			}
, 			{
				"box" : 				{
					"angle" : 270.0,
					"bgcolor" : [ 0.23921568627451, 0.23921568627451, 0.23921568627451, 1.0 ],
					"bordercolor" : [ 0.411764705882353, 0.411764705882353, 0.411764705882353, 0.0 ],
					"id" : "obj-12",
					"maxclass" : "panel",
					"mode" : 0,
					"numinlets" : 1,
					"numoutlets" : 0,
					"patching_rect" : [ 396.31573623418808, 2.177078664302826, 628.514323025941849, 49.828192591667175 ],
					"proportion" : 0.5
				}

			}
 ],
		"lines" : [ 			{
				"patchline" : 				{
					"destination" : [ "obj-73", 3 ],
					"source" : [ "obj-11", 1 ]
				}

			}
, 			{
				"patchline" : 				{
					"destination" : [ "obj-333", 0 ],
					"midpoints" : [ 725.269237518310547, 951.923120498657227, 470.269237518310547, 951.923120498657227 ],
					"order" : 1,
					"source" : [ "obj-118", 0 ]
				}

			}
, 			{
				"patchline" : 				{
					"destination" : [ "obj-492", 17 ],
					"midpoints" : [ 725.269237518310547, 951.923120498657227, 841.519237577915192, 951.923120498657227, 841.519237577915192, 1101.923120498657227, 841.447808802127838, 1101.923120498657227 ],
					"order" : 0,
					"source" : [ "obj-118", 0 ]
				}

			}
, 			{
				"patchline" : 				{
					"destination" : [ "obj-24", 0 ],
					"source" : [ "obj-13", 0 ]
				}

			}
, 			{
				"patchline" : 				{
					"destination" : [ "obj-9", 0 ],
					"source" : [ "obj-18", 0 ]
				}

			}
, 			{
				"patchline" : 				{
					"destination" : [ "obj-43", 0 ],
					"midpoints" : [ 897.330059260129929, 87.0, 873.0, 87.0, 873.0, 6.0, 897.330059260129929, 6.0 ],
					"source" : [ "obj-21", 0 ]
				}

			}
, 			{
				"patchline" : 				{
					"destination" : [ "obj-1", 0 ],
					"source" : [ "obj-24", 0 ]
				}

			}
, 			{
				"patchline" : 				{
					"destination" : [ "obj-277", 0 ],
					"midpoints" : [ 599.269237518310547, 99.0, 599.269237518310547, 99.0 ],
					"source" : [ "obj-275", 0 ]
				}

			}
, 			{
				"patchline" : 				{
					"destination" : [ "obj-75", 0 ],
					"midpoints" : [ 599.269237518310547, 144.0, 599.269237518310547, 144.0 ],
					"order" : 1,
					"source" : [ "obj-277", 0 ]
				}

			}
, 			{
				"patchline" : 				{
					"destination" : [ "obj-89", 0 ],
					"midpoints" : [ 599.269237518310547, 153.0, 640.156857997179031, 153.0 ],
					"order" : 0,
					"source" : [ "obj-277", 0 ]
				}

			}
, 			{
				"patchline" : 				{
					"destination" : [ "obj-492", 16 ],
					"source" : [ "obj-333", 15 ]
				}

			}
, 			{
				"patchline" : 				{
					"destination" : [ "obj-492", 15 ],
					"source" : [ "obj-333", 14 ]
				}

			}
, 			{
				"patchline" : 				{
					"destination" : [ "obj-492", 14 ],
					"source" : [ "obj-333", 13 ]
				}

			}
, 			{
				"patchline" : 				{
					"destination" : [ "obj-492", 13 ],
					"source" : [ "obj-333", 12 ]
				}

			}
, 			{
				"patchline" : 				{
					"destination" : [ "obj-492", 12 ],
					"source" : [ "obj-333", 11 ]
				}

			}
, 			{
				"patchline" : 				{
					"destination" : [ "obj-492", 11 ],
					"source" : [ "obj-333", 10 ]
				}

			}
, 			{
				"patchline" : 				{
					"destination" : [ "obj-492", 10 ],
					"source" : [ "obj-333", 9 ]
				}

			}
, 			{
				"patchline" : 				{
					"destination" : [ "obj-492", 9 ],
					"source" : [ "obj-333", 8 ]
				}

			}
, 			{
				"patchline" : 				{
					"destination" : [ "obj-492", 8 ],
					"source" : [ "obj-333", 7 ]
				}

			}
, 			{
				"patchline" : 				{
					"destination" : [ "obj-492", 7 ],
					"source" : [ "obj-333", 6 ]
				}

			}
, 			{
				"patchline" : 				{
					"destination" : [ "obj-492", 6 ],
					"source" : [ "obj-333", 5 ]
				}

			}
, 			{
				"patchline" : 				{
					"destination" : [ "obj-492", 5 ],
					"source" : [ "obj-333", 4 ]
				}

			}
, 			{
				"patchline" : 				{
					"destination" : [ "obj-492", 4 ],
					"source" : [ "obj-333", 3 ]
				}

			}
, 			{
				"patchline" : 				{
					"destination" : [ "obj-492", 3 ],
					"source" : [ "obj-333", 2 ]
				}

			}
, 			{
				"patchline" : 				{
					"destination" : [ "obj-492", 2 ],
					"source" : [ "obj-333", 1 ]
				}

			}
, 			{
				"patchline" : 				{
					"destination" : [ "obj-492", 1 ],
					"source" : [ "obj-333", 0 ]
				}

			}
, 			{
				"patchline" : 				{
					"destination" : [ "obj-421", 15 ],
					"source" : [ "obj-337", 15 ]
				}

			}
, 			{
				"patchline" : 				{
					"destination" : [ "obj-421", 11 ],
					"source" : [ "obj-337", 14 ]
				}

			}
, 			{
				"patchline" : 				{
					"destination" : [ "obj-421", 7 ],
					"source" : [ "obj-337", 13 ]
				}

			}
, 			{
				"patchline" : 				{
					"destination" : [ "obj-421", 3 ],
					"source" : [ "obj-337", 12 ]
				}

			}
, 			{
				"patchline" : 				{
					"destination" : [ "obj-421", 14 ],
					"source" : [ "obj-337", 11 ]
				}

			}
, 			{
				"patchline" : 				{
					"destination" : [ "obj-421", 10 ],
					"source" : [ "obj-337", 10 ]
				}

			}
, 			{
				"patchline" : 				{
					"destination" : [ "obj-421", 6 ],
					"source" : [ "obj-337", 9 ]
				}

			}
, 			{
				"patchline" : 				{
					"destination" : [ "obj-421", 2 ],
					"source" : [ "obj-337", 8 ]
				}

			}
, 			{
				"patchline" : 				{
					"destination" : [ "obj-421", 13 ],
					"source" : [ "obj-337", 7 ]
				}

			}
, 			{
				"patchline" : 				{
					"destination" : [ "obj-421", 9 ],
					"source" : [ "obj-337", 6 ]
				}

			}
, 			{
				"patchline" : 				{
					"destination" : [ "obj-421", 5 ],
					"source" : [ "obj-337", 5 ]
				}

			}
, 			{
				"patchline" : 				{
					"destination" : [ "obj-421", 1 ],
					"source" : [ "obj-337", 4 ]
				}

			}
, 			{
				"patchline" : 				{
					"destination" : [ "obj-421", 12 ],
					"source" : [ "obj-337", 3 ]
				}

			}
, 			{
				"patchline" : 				{
					"destination" : [ "obj-421", 8 ],
					"source" : [ "obj-337", 2 ]
				}

			}
, 			{
				"patchline" : 				{
					"destination" : [ "obj-421", 4 ],
					"source" : [ "obj-337", 1 ]
				}

			}
, 			{
				"patchline" : 				{
					"destination" : [ "obj-421", 0 ],
					"source" : [ "obj-337", 0 ]
				}

			}
, 			{
				"patchline" : 				{
					"destination" : [ "obj-80", 2 ],
					"source" : [ "obj-34", 0 ]
				}

			}
, 			{
				"patchline" : 				{
					"destination" : [ "obj-333", 1 ],
					"midpoints" : [ 365.269240379333496, 945.673120558261871, 826.269237518310547, 945.673120558261871 ],
					"source" : [ "obj-358", 0 ]
				}

			}
, 			{
				"patchline" : 				{
					"destination" : [ "obj-87", 0 ],
					"source" : [ "obj-37", 0 ]
				}

			}
, 			{
				"patchline" : 				{
					"destination" : [ "obj-96", 0 ],
					"midpoints" : [ 897.330059260129929, 48.0, 873.0, 48.0, 873.0, 96.0, 897.330059260129929, 96.0 ],
					"source" : [ "obj-43", 0 ]
				}

			}
, 			{
				"patchline" : 				{
					"destination" : [ "obj-337", 0 ],
					"source" : [ "obj-492", 0 ]
				}

			}
, 			{
				"patchline" : 				{
					"destination" : [ "obj-337", 1 ],
					"midpoints" : [ 433.519237518310547, 1120.081019639968872, 826.269237518310547, 1120.081019639968872 ],
					"source" : [ "obj-5", 0 ]
				}

			}
, 			{
				"patchline" : 				{
					"destination" : [ "obj-55", 0 ],
					"midpoints" : [ 675.156857997179031, 144.0, 675.156857997179031, 144.0 ],
					"source" : [ "obj-51", 0 ]
				}

			}
, 			{
				"patchline" : 				{
					"destination" : [ "obj-57", 0 ],
					"midpoints" : [ 705.656857997179031, 144.0, 705.656857997179031, 144.0 ],
					"source" : [ "obj-51", 1 ]
				}

			}
, 			{
				"patchline" : 				{
					"destination" : [ "obj-75", 0 ],
					"midpoints" : [ 675.156857997179031, 174.0, 624.0, 174.0, 624.0, 159.0, 599.269237518310547, 159.0 ],
					"order" : 1,
					"source" : [ "obj-55", 0 ]
				}

			}
, 			{
				"patchline" : 				{
					"destination" : [ "obj-89", 0 ],
					"midpoints" : [ 675.156857997179031, 186.0, 640.156857997179031, 186.0 ],
					"order" : 0,
					"source" : [ "obj-55", 0 ]
				}

			}
, 			{
				"patchline" : 				{
					"destination" : [ "obj-75", 0 ],
					"midpoints" : [ 705.656857997179031, 183.0, 624.0, 183.0, 624.0, 159.0, 599.269237518310547, 159.0 ],
					"order" : 1,
					"source" : [ "obj-57", 0 ]
				}

			}
, 			{
				"patchline" : 				{
					"destination" : [ "obj-89", 0 ],
					"midpoints" : [ 705.656857997179031, 186.0, 640.156857997179031, 186.0 ],
					"order" : 0,
					"source" : [ "obj-57", 0 ]
				}

			}
, 			{
				"patchline" : 				{
					"destination" : [ "obj-51", 0 ],
					"midpoints" : [ 675.156857997179031, 45.0, 675.156857997179031, 45.0 ],
					"source" : [ "obj-6", 0 ]
				}

			}
, 			{
				"patchline" : 				{
					"destination" : [ "obj-118", 0 ],
					"midpoints" : [ 575.269237518310547, 509.607329964637756, 725.716606020927429, 509.607329964637756, 725.716606020927429, 876.923120498657227, 725.269237518310547, 876.923120498657227 ],
					"order" : 0,
					"source" : [ "obj-7", 0 ]
				}

			}
, 			{
				"patchline" : 				{
					"destination" : [ "obj-18", 0 ],
					"order" : 1,
					"source" : [ "obj-7", 0 ]
				}

			}
, 			{
				"patchline" : 				{
					"destination" : [ "obj-37", 0 ],
					"midpoints" : [ 575.269237518310547, 495.0, 486.0, 495.0, 486.0, 6.0, 510.269237518310547, 6.0 ],
					"order" : 2,
					"source" : [ "obj-7", 0 ]
				}

			}
, 			{
				"patchline" : 				{
					"destination" : [ "obj-6", 0 ],
					"midpoints" : [ 781.913607627153397, 300.0, 756.0, 300.0, 756.0, 54.0, 651.0, 54.0, 651.0, 6.0, 675.156857997179031, 6.0 ],
					"source" : [ "obj-71", 0 ]
				}

			}
, 			{
				"patchline" : 				{
					"destination" : [ "obj-80", 0 ],
					"midpoints" : [ 365.269237518310547, 645.923120498657227, 340.769237518310547, 645.923120498657227, 340.769237518310547, 705.923120498657227, 365.269237518310547, 705.923120498657227 ],
					"source" : [ "obj-73", 0 ]
				}

			}
, 			{
				"patchline" : 				{
					"destination" : [ "obj-492", 0 ],
					"midpoints" : [ 599.269237518310547, 456.0, 342.0, 456.0, 342.0, 1071.0, 470.269237518310547, 1071.0 ],
					"order" : 1,
					"source" : [ "obj-75", 0 ]
				}

			}
, 			{
				"patchline" : 				{
					"destination" : [ "obj-73", 0 ],
					"midpoints" : [ 599.269237518310547, 456.0, 365.269237518310547, 456.0 ],
					"order" : 2,
					"source" : [ "obj-75", 0 ]
				}

			}
, 			{
				"patchline" : 				{
					"destination" : [ "obj-84", 0 ],
					"midpoints" : [ 599.269237518310547, 234.0, 675.156857997179031, 234.0 ],
					"order" : 0,
					"source" : [ "obj-75", 0 ]
				}

			}
, 			{
				"patchline" : 				{
					"destination" : [ "obj-2066", 0 ],
					"midpoints" : [ 365.269237518310547, 744.923120498657227, 532.769237518310547, 744.923120498657227, 532.769237518310547, 708.923120498657227, 547.519233465194702, 708.923120498657227 ],
					"order" : 0,
					"source" : [ "obj-80", 0 ]
				}

			}
, 			{
				"patchline" : 				{
					"destination" : [ "obj-358", 0 ],
					"order" : 2,
					"source" : [ "obj-80", 0 ]
				}

			}
, 			{
				"patchline" : 				{
					"destination" : [ "obj-5", 0 ],
					"order" : 1,
					"source" : [ "obj-80", 0 ]
				}

			}
, 			{
				"patchline" : 				{
					"destination" : [ "obj-71", 0 ],
					"midpoints" : [ 705.656857997179031, 300.0, 759.0, 300.0, 759.0, 273.0, 781.913607627153397, 273.0 ],
					"source" : [ "obj-82", 0 ]
				}

			}
, 			{
				"patchline" : 				{
					"destination" : [ "obj-71", 0 ],
					"midpoints" : [ 675.156857997179031, 309.0, 759.0, 309.0, 759.0, 273.0, 781.913607627153397, 273.0 ],
					"source" : [ "obj-83", 0 ]
				}

			}
, 			{
				"patchline" : 				{
					"destination" : [ "obj-82", 0 ],
					"midpoints" : [ 705.656857997179031, 270.0, 705.656857997179031, 270.0 ],
					"source" : [ "obj-84", 1 ]
				}

			}
, 			{
				"patchline" : 				{
					"destination" : [ "obj-83", 0 ],
					"midpoints" : [ 675.156857997179031, 270.0, 675.156857997179031, 270.0 ],
					"source" : [ "obj-84", 0 ]
				}

			}
, 			{
				"patchline" : 				{
					"destination" : [ "obj-73", 1 ],
					"source" : [ "obj-88", 0 ]
				}

			}
, 			{
				"patchline" : 				{
					"destination" : [ "obj-34", 0 ],
					"source" : [ "obj-93", 0 ]
				}

			}
 ],
		"parameters" : 		{
			"obj-13" : [ "live.text[1]", "live.text", 0 ],
			"obj-26" : [ "live.numbox[1]", "live.numbox[1]", 0 ],
			"obj-32" : [ "live.text", "live.text", 0 ],
			"obj-37" : [ "live.numbox", "live.numbox", 0 ],
			"obj-43" : [ "live.gain~", "live.gain~", 0 ],
			"obj-6" : [ "live.tab", "live.tab", 0 ],
			"parameterbanks" : 			{

			}
,
			"inherited_shortname" : 1
		}
,
		"dependency_cache" : [ 			{
				"name" : "variableSequencer.maxpat",
				"bootpath" : "D:/Google Drive/Education/2 - Masters/2021 - Thesis/CAC System/Exported Prototypes/Cycle 3",
				"patcherrelativepath" : ".",
				"type" : "JSON",
				"implicit" : 1
			}
 ],
		"autosave" : 0,
		"boxgroups" : [ 			{
				"boxes" : [ "obj-6", "obj-32", "obj-12", "obj-37", "obj-43" ]
			}
 ],
		"bgcolor" : [ 1.0, 1.0, 1.0, 1.0 ]
	}

}
